<svg version="1.1" id="Layer_1" xmlns="http://www.w3.org/2000/svg" xmlns:xlink="http://www.w3.org/1999/xlink" x="0px" y="0px"
	 width="100%" viewBox="0 0 492 720" enable-background="new 0 0 492 720" xml:space="preserve">
<path fill="#FFFFFF" opacity="1.000000" stroke="none" 
	d="
M1.000000,249.000000 
	C1.000000,166.000015 1.000000,83.500031 1.000000,1.000033 
	C164.999954,1.000022 328.999908,1.000022 492.999908,1.000011 
	C492.999939,240.999924 492.999939,480.999847 492.999969,720.999817 
	C329.000122,720.999878 165.000229,720.999878 1.000175,720.999939 
	C1.000000,563.833313 1.000000,406.666656 1.000000,249.000000 
M219.538452,20.208303 
	C216.356491,20.194525 213.174515,20.180748 209.072495,20.034601 
	C204.712708,20.077950 200.352905,20.121300 195.068420,20.033236 
	C190.042603,20.077730 185.016785,20.122225 179.064285,20.035767 
	C173.374405,20.079384 167.684509,20.122999 161.067413,20.030888 
	C155.042343,20.075874 149.017258,20.120859 142.064621,20.030710 
	C124.742973,20.020090 107.421333,20.004503 90.099686,20.000137 
	C69.446846,19.994930 48.793968,19.976601 28.141188,20.012331 
	C21.218599,20.024307 17.072701,23.284422 17.068394,29.081036 
	C17.039434,68.051407 17.120607,107.021843 17.019129,146.919785 
	C17.068424,152.944702 17.117722,158.969620 17.022240,165.921066 
	C17.070469,171.610855 17.118696,177.300659 17.020170,183.916580 
	C17.068735,189.274918 17.117300,194.633255 17.023439,200.909714 
	C17.071247,204.937378 17.119055,208.965057 17.027168,213.892929 
	C17.073862,216.926666 17.120558,219.960419 17.028843,223.885635 
	C17.073652,226.588806 17.118462,229.291962 17.024876,232.921768 
	C17.072687,238.277588 17.120501,243.633423 17.029289,249.903229 
	C17.074615,253.599396 17.119942,257.295563 17.030331,261.884857 
	C17.075125,264.588745 17.119921,267.292633 17.033262,270.846130 
	C17.075933,272.562439 17.118607,274.278778 17.030249,276.903839 
	C17.075031,280.268005 17.119814,283.632172 17.033892,287.889038 
	C17.077559,290.591095 17.121223,293.293121 17.035686,296.887726 
	C17.078833,299.590240 17.121977,302.292755 17.035610,305.908661 
	C17.078203,309.604614 17.120794,313.300598 17.034126,317.925964 
	C17.077637,324.616486 17.121147,331.306976 17.036261,338.927124 
	C17.079464,349.617218 17.122669,360.307281 17.039679,371.912323 
	C17.080742,375.608551 17.121803,379.304779 17.036589,383.903870 
	C17.079340,386.936401 17.122089,389.968964 17.039423,393.902893 
	C17.081373,396.935059 17.123323,399.967255 17.039938,403.881500 
	C17.083002,406.255371 17.126064,408.629272 17.043800,411.916687 
	C17.084396,415.610901 17.124992,419.305115 17.038605,423.850189 
	C17.081160,425.567169 17.123714,427.284119 17.039383,429.902130 
	C17.081503,432.935730 17.123621,435.969360 17.040241,439.895844 
	C17.082106,442.597717 17.123970,445.299561 17.037413,448.902313 
	C17.079809,451.936005 17.122206,454.969727 17.037310,458.896088 
	C17.080452,461.598663 17.123592,464.301239 17.037857,467.904297 
	C17.080305,470.937195 17.122755,473.970123 17.034416,477.854034 
	C17.079565,479.570007 17.124712,481.285950 17.036928,483.869659 
	C17.080557,485.914337 17.124184,487.959045 17.034935,490.830475 
	C17.080273,492.222260 17.125610,493.614075 17.037565,495.913269 
	C17.080643,499.276764 17.123722,502.640259 17.035025,506.871368 
	C17.080036,508.915314 17.125048,510.959229 17.034531,513.902954 
	C17.078239,516.936523 17.121948,519.970032 17.031984,523.895508 
	C17.076153,526.597473 17.120321,529.299377 17.028809,532.795044 
	C17.075623,533.864502 17.122438,534.934021 17.021635,536.867249 
	C17.070297,538.912109 17.118961,540.956909 17.029371,543.827942 
	C17.075802,545.219727 17.122232,546.611450 17.030212,548.910400 
	C17.075686,552.274658 17.121157,555.638916 17.028942,559.902649 
	C17.074957,562.936218 17.120972,565.969727 17.027334,569.894348 
	C17.073275,572.596863 17.119215,575.299377 17.025682,578.827759 
	C17.073465,580.219482 17.121250,581.611145 17.028366,583.901733 
	C17.074606,586.935181 17.120844,589.968567 17.025494,593.908691 
	C17.072552,597.273804 17.119612,600.638855 17.024199,604.915955 
	C17.071758,610.279053 17.119318,615.642212 17.026833,621.932434 
	C17.072609,628.955139 17.118383,635.977905 17.021324,643.917542 
	C17.069775,647.944519 17.118225,651.971436 17.019890,656.864502 
	C17.068714,658.909119 17.117540,660.953674 17.021278,663.823486 
	C17.069521,665.215637 17.117764,666.607788 17.021317,668.890259 
	C17.069702,671.592163 17.118088,674.294128 17.020088,677.862244 
	C17.068598,679.907532 17.117109,681.952820 17.021185,684.864380 
	C17.074003,686.909302 17.126820,688.954285 17.041515,691.767578 
	C18.346716,694.216675 19.651918,696.665833 21.255589,699.721069 
	C22.503176,700.092041 23.750761,700.463013 25.823435,700.976685 
	C27.214998,700.929260 28.606562,700.881836 30.877329,700.978455 
	C33.250626,700.930176 35.623920,700.881897 38.845211,700.978271 
	C40.562801,700.930054 42.280388,700.881836 44.846367,700.975891 
	C46.563282,700.928284 48.280197,700.880676 50.846264,700.975891 
	C52.563969,700.929199 54.281670,700.882507 56.878784,700.977661 
	C59.251831,700.929565 61.624882,700.881531 64.864426,700.974182 
	C66.908722,700.926941 68.953018,700.879700 71.888222,700.973511 
	C74.590591,700.926514 77.292961,700.879517 80.907661,700.975037 
	C84.603836,700.927307 88.300011,700.879517 92.876503,700.971802 
	C95.251106,700.926025 97.625702,700.880188 100.916252,700.974365 
	C104.943405,700.927002 108.970551,700.879700 113.847313,700.970215 
	C115.565193,700.924622 117.283073,700.879028 119.892166,700.970520 
	C122.594597,700.924622 125.297028,700.878723 128.911926,700.970215 
	C132.608612,700.924133 136.305298,700.877991 140.930008,700.968933 
	C153.287430,700.923828 165.644852,700.878662 178.930771,700.968018 
	C186.288254,700.923157 193.645737,700.878235 201.928085,700.968506 
	C206.952545,700.923706 211.976990,700.878906 217.924973,700.970215 
	C222.617813,700.924744 227.310669,700.879333 232.793716,700.968445 
	C237.530182,700.923706 242.266632,700.878967 247.926300,700.970520 
	C252.619247,700.924744 257.312195,700.878906 262.932190,700.968994 
	C268.955444,700.924438 274.978729,700.879822 281.925446,700.972107 
	C286.618652,700.926208 291.311859,700.880310 296.931244,700.972168 
	C302.622101,700.926331 308.312988,700.880493 314.931396,700.971863 
	C321.289398,700.925720 327.647430,700.879578 334.932800,700.972412 
	C343.289612,700.926880 351.646423,700.881348 360.930725,700.976196 
	C395.390320,700.984131 429.849884,701.001221 464.309479,700.992371 
	C471.371185,700.990601 475.950897,696.819275 475.957977,689.870056 
	C475.993561,654.914673 475.890259,619.959167 475.981628,584.075928 
	C475.932343,575.719055 475.883026,567.362183 475.980286,558.079163 
	C475.693909,552.372681 475.407532,546.666199 475.361908,540.157959 
	C475.519623,534.106689 475.677307,528.055420 475.979401,521.079651 
	C475.931274,516.053772 475.883148,511.027863 475.978638,505.075043 
	C475.930145,499.051727 475.881653,493.028442 475.976715,486.081818 
	C475.929077,481.388916 475.881409,476.696045 475.974426,471.116486 
	C475.927643,466.412231 475.880859,461.707977 475.975403,456.080536 
	C475.928192,451.387512 475.880981,446.694458 475.973480,441.076904 
	C475.926788,436.052368 475.880096,431.027863 475.973663,425.075073 
	C475.926971,417.717468 475.880310,410.359894 475.973572,402.074066 
	C475.926331,389.716644 475.879089,377.359253 475.968628,364.088654 
	C475.923462,360.392242 475.878296,356.695862 475.968842,352.107544 
	C475.923645,349.405304 475.878448,346.703033 475.968933,343.151001 
	C475.923279,341.433228 475.877625,339.715454 475.969147,337.081604 
	C475.924011,333.054382 475.878876,329.027191 475.968658,324.119141 
	C475.923126,321.744873 475.877563,319.370575 475.967834,316.083893 
	C475.923004,312.388245 475.878174,308.692596 475.967865,304.104980 
	C475.922638,301.402557 475.877441,298.700134 475.969452,295.130737 
	C475.923981,293.086487 475.878540,291.042267 475.971161,288.118134 
	C475.926056,285.745178 475.880951,283.372192 475.972809,280.149078 
	C475.926361,278.431824 475.879913,276.714539 475.972015,274.148621 
	C475.925903,272.431793 475.879761,270.714935 475.974823,268.172577 
	C475.927307,266.780334 475.879822,265.388123 475.971802,263.104980 
	C475.926117,260.402710 475.880432,257.700439 475.974152,254.172379 
	C475.927124,252.780975 475.880066,251.389587 475.976288,249.173340 
	C475.928528,247.781570 475.880768,246.389816 475.974518,244.118393 
	C475.927399,241.744766 475.880310,239.371155 475.973389,236.117859 
	C475.926514,233.744720 475.879639,231.371597 475.975708,228.119324 
	C475.928192,225.745163 475.880676,223.370987 475.974915,220.117661 
	C475.927765,217.745224 475.880646,215.372772 475.977448,212.174973 
	C475.929382,210.783035 475.881317,209.391098 475.979187,207.133881 
	C475.930573,205.088821 475.881989,203.043747 475.977692,200.079407 
	C475.930420,195.720169 475.883148,191.360916 475.981934,186.074829 
	C475.932648,179.718262 475.883331,173.361710 475.984497,166.092194 
	C475.934082,160.063187 475.883636,154.034195 475.980347,147.104706 
	C475.931488,144.070908 475.882629,141.037125 475.977966,137.104111 
	C475.929291,134.070709 475.880585,131.037323 475.976715,127.178757 
	C475.929749,125.786598 475.882812,124.394440 475.979248,122.103279 
	C475.930695,119.070152 475.882141,116.037033 475.976898,112.112877 
	C475.929321,109.409851 475.881744,106.706818 475.977997,103.104729 
	C475.930084,100.071411 475.882141,97.038101 475.976654,93.155975 
	C475.929138,91.438225 475.881622,89.720474 475.982422,87.178444 
	C475.933838,85.787216 475.885223,84.395981 475.977570,82.138016 
	C475.930420,80.093102 475.883270,78.048187 475.974976,75.153297 
	C475.355591,72.422318 474.736206,69.691330 474.025330,66.149513 
	C474.627014,63.101521 475.228699,60.053528 475.969849,56.156757 
	C475.924835,54.439850 475.879822,52.722939 475.973999,50.138443 
	C475.687866,47.411804 475.401764,44.685162 475.330872,41.206303 
	C475.498413,39.139164 475.665955,37.072029 475.969269,34.211643 
	C475.925018,33.142445 475.880768,32.073246 475.951630,30.264040 
	C474.651031,27.807760 473.350433,25.351480 471.674957,22.277733 
	C469.117950,21.574316 466.560974,20.870899 463.111969,20.031015 
	C460.409088,20.075558 457.706177,20.120100 454.102936,20.030006 
	C451.069214,20.075413 448.035492,20.120817 444.109528,20.034199 
	C441.407227,20.077845 438.704926,20.121492 435.102112,20.032461 
	C432.068512,20.076710 429.034912,20.120958 425.151154,20.035372 
	C423.433807,20.078625 421.716461,20.121880 419.085754,20.036261 
	C415.391602,20.080521 411.697449,20.124781 407.121979,20.037842 
	C404.747681,20.080137 402.373383,20.122431 399.098755,20.037270 
	C396.066315,20.079990 393.033905,20.122709 389.109253,20.036852 
	C386.405609,20.078871 383.701996,20.120888 380.079773,20.037739 
	C376.052246,20.080418 372.024689,20.123098 367.067963,20.039469 
	C356.377808,20.081194 345.687653,20.122917 334.067810,20.040041 
	C327.377411,20.081280 320.687042,20.122520 313.082733,20.039272 
	C309.386993,20.081156 305.691223,20.123041 301.102478,20.039026 
	C298.400116,20.081247 295.697754,20.123468 292.114227,20.039240 
	C289.740753,20.081409 287.367279,20.123579 284.080627,20.038885 
	C280.385559,20.079866 276.690460,20.120848 272.145050,20.036039 
	C270.428894,20.078949 268.712708,20.121859 266.104065,20.036633 
	C263.399902,20.079807 260.695709,20.122982 257.078827,20.039099 
	C253.382187,20.082279 249.685547,20.125460 245.067261,20.041595 
	C240.057785,20.320389 235.048309,20.599184 229.557190,20.223196 
	C226.383774,20.442259 223.210342,20.661322 219.538452,20.208303 
z"/>
<path fill="#28A0D4" opacity="1.000000" stroke="none" 
	d="
M475.831848,365.001831 
	C475.879089,377.359253 475.926331,389.716644 475.549561,402.542725 
	C473.633545,403.957886 471.897339,404.662659 470.685791,405.886688 
	C449.384399,427.407959 428.208710,449.053864 406.865234,470.533112 
	C398.464325,478.987457 389.603027,486.983002 381.153656,495.390717 
	C356.162567,520.258545 331.272339,545.227783 306.342712,570.157410 
	C284.831635,591.668457 263.320526,613.179626 241.809433,634.690735 
	C221.558044,654.942139 201.283386,675.170410 181.105698,695.494995 
	C179.702484,696.908447 179.019943,699.037354 178.002274,700.833557 
	C165.644852,700.878662 153.287430,700.923828 140.508118,700.564941 
	C142.579468,697.085449 144.842133,693.782959 147.606094,690.973755 
	C159.158340,679.232239 170.796936,667.573792 182.527771,656.010559 
	C193.147644,645.542480 204.060226,635.369385 214.601730,624.824280 
	C225.495514,613.926636 235.995422,602.635986 246.851685,591.699951 
	C262.615570,575.820251 278.509277,560.068726 294.418152,544.333923 
	C302.402405,536.437073 310.667511,528.821960 318.580383,520.855713 
	C328.232605,511.138367 337.584167,501.122955 347.184235,491.352905 
	C356.565948,481.805023 366.096649,472.403564 375.562134,462.937988 
	C386.680054,451.819946 397.733765,440.636719 408.934601,429.602844 
	C419.764008,418.934906 430.866394,408.542450 441.623169,397.802887 
	C451.118347,388.322906 460.241455,378.471069 469.680237,368.933197 
	C471.349976,367.245941 473.762390,366.293579 475.831848,365.001831 
z"/>
<path fill="#F3CB54" opacity="1.000000" stroke="none" 
	d="
M334.997498,20.164646 
	C345.687653,20.122917 356.377808,20.081194 367.491058,20.436432 
	C364.205627,24.792740 360.603058,28.857885 356.772064,32.694946 
	C321.486359,68.036644 286.161072,103.338882 250.847321,138.652618 
	C207.168579,182.331390 163.489822,226.010162 119.811081,269.688934 
	C87.293541,302.206451 54.784725,334.732697 22.230156,367.213135 
	C20.753452,368.686401 18.863398,369.745392 17.165871,370.997375 
	C17.122669,360.307281 17.079464,349.617218 17.453419,338.457825 
	C19.481766,336.924225 21.319485,336.089539 22.668015,334.759033 
	C32.698853,324.862335 42.697712,314.931244 52.577511,304.884003 
	C61.439980,295.871307 70.009315,286.568268 78.945015,277.630310 
	C87.727409,268.845673 96.935570,260.487152 105.735123,251.719116 
	C137.944489,219.625168 170.061371,187.438354 202.213135,155.286575 
	C245.573959,111.925720 288.944916,68.574951 332.246521,25.155064 
	C333.535522,23.862558 334.096893,21.844452 334.997498,20.164646 
z"/>
<path fill="#488E2A" opacity="1.000000" stroke="none" 
	d="
M475.834015,167.005142 
	C475.883331,173.361710 475.932648,179.718262 475.575500,186.579315 
	C473.534271,188.467667 471.789764,189.741791 470.280243,191.250992 
	C321.044708,340.453094 171.829041,489.675140 22.580406,638.864197 
	C20.987944,640.455994 18.978785,641.630981 17.164150,643.000610 
	C17.118383,635.977905 17.072609,628.955139 17.453686,621.465820 
	C19.718904,619.700928 21.793335,618.638855 23.362103,617.070801 
	C171.951126,468.553925 320.501617,319.998474 469.054749,171.445648 
	C470.114990,170.385422 471.057220,169.149902 472.276367,168.323517 
	C473.293030,167.634399 474.635712,167.426285 475.834015,167.005142 
z"/>
<path fill="#52912A" opacity="1.000000" stroke="none" 
	d="
M475.909241,166.548676 
	C474.635712,167.426285 473.293030,167.634399 472.276367,168.323517 
	C471.057220,169.149902 470.114990,170.385422 469.054749,171.445648 
	C320.501617,319.998474 171.951126,468.553925 23.362103,617.070801 
	C21.793335,618.638855 19.718904,619.700928 17.523708,621.002258 
	C17.119318,615.642212 17.071758,610.279053 17.429363,604.418091 
	C19.468275,602.534973 21.210596,601.258240 22.720354,599.748901 
	C171.955154,450.547150 321.170258,301.325714 470.418335,152.137238 
	C472.009827,150.546371 474.019012,149.373291 475.833221,148.005188 
	C475.883636,154.034195 475.934082,160.063187 475.909241,166.548676 
z"/>
<path fill="#D7403E" opacity="1.000000" stroke="none" 
	d="
M17.166092,145.992264 
	C17.120607,107.021843 17.039434,68.051407 17.068394,29.081036 
	C17.072701,23.284422 21.218599,20.024307 28.141188,20.012331 
	C48.793968,19.976601 69.446846,19.994930 90.099686,20.000137 
	C107.421333,20.004503 124.742973,20.020090 142.489029,20.431709 
	C137.684586,26.312914 132.541061,31.877720 127.209633,37.256245 
	C114.957130,49.616970 102.569069,61.843399 90.328453,74.215782 
	C85.581337,79.014000 81.211067,84.186226 76.442223,88.961472 
	C69.455269,95.957809 62.236355,102.721886 55.174419,109.644241 
	C52.475170,112.290138 49.977711,115.140686 47.315647,117.825958 
	C41.518013,123.674126 35.790352,129.599472 29.807631,135.253632 
	C25.794916,139.045990 21.393560,142.427139 17.166092,145.992264 
z"/>
<path fill="#2896D5" opacity="1.000000" stroke="none" 
	d="
M178.466522,700.900757 
	C179.019943,699.037354 179.702484,696.908447 181.105698,695.494995 
	C201.283386,675.170410 221.558044,654.942139 241.809433,634.690735 
	C263.320526,613.179626 284.831635,591.668457 306.342712,570.157410 
	C331.272339,545.227783 356.162567,520.258545 381.153656,495.390717 
	C389.603027,486.983002 398.464325,478.987457 406.865234,470.533112 
	C428.208710,449.053864 449.384399,427.407959 470.685791,405.886688 
	C471.897339,404.662659 473.633545,403.957886 475.479584,403.006836 
	C475.880310,410.359894 475.926971,417.717468 475.570679,425.579956 
	C473.886749,427.114868 472.496216,428.035248 471.340515,429.190491 
	C382.232788,518.264160 293.140808,607.353699 204.080566,696.474915 
	C202.841614,697.714722 202.019745,699.371338 201.003204,700.833374 
	C193.645737,700.878235 186.288254,700.923157 178.466522,700.900757 
z"/>
<path fill="#31499D" opacity="1.000000" stroke="none" 
	d="
M475.835785,585.003662 
	C475.890259,619.959167 475.993561,654.914673 475.957977,689.870056 
	C475.950897,696.819275 471.371185,700.990601 464.309479,700.992371 
	C429.849884,701.001221 395.390320,700.984131 360.509247,700.567261 
	C363.965912,695.699219 367.599548,690.995117 371.771790,686.830688 
	C381.260651,677.359619 391.076263,668.216980 400.642242,658.821899 
	C409.897949,649.731506 419.015320,640.500061 428.177979,631.315186 
	C432.969910,626.511658 437.692596,621.638672 442.509369,616.860352 
	C453.115936,606.338440 463.757996,595.852234 474.415009,585.381348 
	C474.718903,585.082764 475.354736,585.122009 475.835785,585.003662 
z"/>
<path fill="#F3C154" opacity="1.000000" stroke="none" 
	d="
M334.532654,20.102345 
	C334.096893,21.844452 333.535522,23.862558 332.246521,25.155064 
	C288.944916,68.574951 245.573959,111.925720 202.213135,155.286575 
	C170.061371,187.438354 137.944489,219.625168 105.735123,251.719116 
	C96.935570,260.487152 87.727409,268.845673 78.945015,277.630310 
	C70.009315,286.568268 61.439980,295.871307 52.577511,304.884003 
	C42.697712,314.931244 32.698853,324.862335 22.668015,334.759033 
	C21.319485,336.089539 19.481766,336.924225 17.517616,337.992981 
	C17.121147,331.306976 17.077637,324.616486 17.452116,317.457794 
	C19.362000,316.044464 21.092707,315.338318 22.311796,314.120178 
	C118.667664,217.838364 214.988052,121.521011 311.253754,25.149046 
	C312.541260,23.860111 313.098511,21.841688 313.996643,20.163757 
	C320.687042,20.122520 327.377411,20.081280 334.532654,20.102345 
z"/>
<path fill="#418D2D" opacity="1.000000" stroke="none" 
	d="
M17.092733,643.459106 
	C18.978785,641.630981 20.987944,640.455994 22.580406,638.864197 
	C171.829041,489.675140 321.044708,340.453094 470.280243,191.250992 
	C471.789764,189.741791 473.534271,188.467667 475.502502,187.042755 
	C475.883148,191.360916 475.930420,195.720169 475.572876,200.558990 
	C473.661224,202.309738 472.051300,203.477783 470.662140,204.866669 
	C321.743927,353.753784 172.842285,502.657471 23.939547,651.559998 
	C22.879335,652.620239 21.937420,653.855835 20.718590,654.682678 
	C19.704012,655.370972 18.363062,655.578125 17.166676,655.998413 
	C17.118225,651.971436 17.069775,647.944519 17.092733,643.459106 
z"/>
<path fill="#78A22A" opacity="1.000000" stroke="none" 
	d="
M475.834229,94.004784 
	C475.882141,97.038101 475.930084,100.071411 475.572937,103.594780 
	C473.532928,105.468758 471.788666,106.743286 470.278778,108.252327 
	C405.831329,172.663284 341.404816,237.095154 276.975647,301.524353 
	C192.404968,386.095032 107.840782,470.672211 23.214956,555.187683 
	C21.569658,556.830811 19.198931,557.747559 17.166637,559.003174 
	C17.121157,555.638916 17.075686,552.274658 17.432266,548.414124 
	C24.738003,541.263672 31.647707,534.615784 38.543961,527.953979 
	C48.675480,518.166931 58.906616,508.479858 68.900742,498.554291 
	C90.097565,477.502869 111.167984,456.324127 132.291824,435.199188 
	C142.712769,424.777710 153.198181,414.419739 163.538528,403.918884 
	C170.382553,396.968628 176.888062,389.682831 183.787460,382.789825 
	C191.046173,375.537903 198.735062,368.716553 205.993088,361.464020 
	C293.895386,273.628235 381.746185,185.740982 469.670410,97.927216 
	C471.352753,96.246994 473.763397,95.296021 475.834229,94.004784 
z"/>
<path fill="#29A0A5" opacity="1.000000" stroke="none" 
	d="
M475.833313,304.996948 
	C475.878174,308.692596 475.923004,312.388245 475.567200,316.582947 
	C473.886017,318.112885 472.496246,319.034485 471.340363,320.190033 
	C345.898743,445.598450 220.472778,571.022522 95.077118,696.476929 
	C93.838028,697.716553 93.013992,699.370972 91.996185,700.831787 
	C88.300011,700.879517 84.603836,700.927307 80.458138,700.549622 
	C81.311485,698.277222 82.374588,696.189636 83.951584,694.617676 
	C163.834732,614.989258 243.797775,535.440979 323.670685,455.802246 
	C372.761688,406.855255 421.716400,357.771606 470.769226,308.786224 
	C472.245972,307.311523 474.135986,306.250702 475.833313,304.996948 
z"/>
<path fill="#5B952A" opacity="1.000000" stroke="none" 
	d="
M475.906799,147.554932 
	C474.019012,149.373291 472.009827,150.546371 470.418335,152.137238 
	C321.170258,301.325714 171.955154,450.547150 22.720354,599.748901 
	C21.210596,601.258240 19.468275,602.534973 17.500599,603.962158 
	C17.119612,600.638855 17.072552,597.273804 17.431938,593.412231 
	C29.101233,582.230042 40.532482,571.714783 51.578030,560.808899 
	C61.946941,550.571106 71.788795,539.801208 82.084976,529.487488 
	C90.978302,520.578918 100.326431,512.124329 109.215576,503.211761 
	C120.105408,492.293182 130.644623,481.025635 141.484543,470.056305 
	C155.477722,455.896118 169.571411,441.834259 183.713913,427.822968 
	C191.733170,419.878052 200.058426,412.240448 208.027084,404.246368 
	C218.553040,393.686768 228.792191,382.841736 239.285736,372.249298 
	C253.936157,357.460876 268.646149,342.730225 283.445526,328.090973 
	C297.194031,314.491211 311.217407,301.167999 324.890991,287.494232 
	C338.580414,273.804626 351.938171,259.783905 365.546600,246.012405 
	C369.626648,241.883408 374.208069,238.250351 378.295563,234.128082 
	C383.991028,228.384232 389.325775,222.283051 395.013977,216.531647 
	C407.933563,203.468567 420.974640,190.525635 433.966370,177.533890 
	C445.851196,165.649002 457.690582,153.717926 469.672485,141.931732 
	C471.370911,140.261032 473.762817,139.295319 475.833740,138.003326 
	C475.882629,141.037125 475.931488,144.070908 475.906799,147.554932 
z"/>
<path fill="#29A2BA" opacity="1.000000" stroke="none" 
	d="
M475.833740,324.999969 
	C475.878876,329.027191 475.924011,333.054382 475.558441,337.582764 
	C472.148956,340.838593 469.070618,343.512177 466.165161,346.362000 
	C453.616028,358.670685 441.036346,370.949982 428.619080,383.390961 
	C408.547638,403.500702 388.671997,423.806091 368.573273,443.888336 
	C341.945709,470.494049 315.123535,496.904907 288.497467,523.512085 
	C267.712891,544.281982 247.198898,565.322937 226.382599,586.060669 
	C205.627457,606.737549 184.580185,627.120972 163.787170,647.760132 
	C150.605591,660.844177 137.586472,674.094299 124.640068,687.411438 
	C120.518524,691.651001 116.865265,696.345825 112.997711,700.832397 
	C108.970551,700.879700 104.943405,700.927002 100.500053,700.571533 
	C101.113861,698.888000 102.034233,697.497742 103.189438,696.342285 
	C225.931290,573.567261 348.688812,450.807953 471.476776,328.079071 
	C472.716461,326.839966 474.372223,326.017151 475.833740,324.999969 
z"/>
<path fill="#DACC4C" opacity="1.000000" stroke="none" 
	d="
M17.165590,422.999329 
	C17.124992,419.305115 17.084396,415.610901 17.437988,411.417114 
	C19.348694,409.651459 20.973398,408.493713 22.365808,407.103333 
	C51.567867,377.943451 80.743660,348.757294 109.924652,319.576324 
	C207.912354,221.588577 305.903198,123.603973 403.860138,25.585489 
	C405.453003,23.991659 406.631470,21.983738 408.003296,20.169044 
	C411.697449,20.124781 415.391602,20.080521 419.500946,20.432650 
	C418.885529,22.111252 417.964966,23.503494 416.808685,24.660053 
	C285.067871,156.434036 153.311386,288.192352 21.524527,419.920258 
	C20.284538,421.159698 18.627773,421.982178 17.165590,422.999329 
z"/>
<path fill="#A0B536" opacity="1.000000" stroke="none" 
	d="
M17.166796,506.003754 
	C17.123722,502.640259 17.080643,499.276764 17.457935,495.452637 
	C19.606850,493.806854 21.566711,492.854401 23.028734,491.401093 
	C41.065762,473.472198 58.919655,455.358032 77.037285,437.511444 
	C110.236839,404.808533 143.611282,372.283203 176.835159,339.604858 
	C182.399490,334.131866 187.436401,328.124634 192.962723,322.610504 
	C199.063797,316.522888 205.652740,310.918915 211.670624,304.754242 
	C230.663696,285.297974 249.440964,265.631134 268.413483,246.154663 
	C273.044525,241.400650 278.261536,237.219940 282.931793,232.501190 
	C292.491821,222.841858 301.734009,212.866501 311.348206,203.262680 
	C321.824219,192.798019 332.679321,182.713211 343.169281,172.262146 
	C351.251434,164.209946 358.994019,155.817825 366.947266,147.634827 
	C371.208466,143.250580 375.545380,138.936829 379.938934,134.685089 
	C385.274933,129.521317 390.840698,124.589302 396.065460,119.317574 
	C403.841522,111.471611 411.278229,103.288010 419.095428,95.484596 
	C427.249054,87.345398 435.810669,79.614723 443.957458,71.468933 
	C452.034729,63.392651 459.725189,54.929718 467.793549,46.844177 
	C469.825562,44.807804 472.653503,43.565666 475.115662,41.958527 
	C475.401764,44.685162 475.687866,47.411804 475.571472,50.612068 
	C473.770264,52.232712 472.265808,53.273384 470.989471,54.543331 
	C459.587097,65.888779 448.224915,77.274635 436.850952,88.648613 
	C400.381073,125.118561 363.911163,161.588531 327.441284,198.058502 
	C315.580688,209.919159 303.720032,221.779800 291.859406,233.640442 
	C271.277679,254.222137 250.695953,274.803833 230.114258,295.385529 
	C212.743454,312.756378 195.372681,330.127258 178.001877,347.498047 
	C163.785599,361.714325 149.569305,375.930511 135.353043,390.146790 
	C98.862793,426.636963 62.395496,463.150238 25.832354,499.567230 
	C23.309549,502.079926 20.071968,503.874969 17.166796,506.003754 
z"/>
<path fill="#5F972A" opacity="1.000000" stroke="none" 
	d="
M475.905853,137.553711 
	C473.762817,139.295319 471.370911,140.261032 469.672485,141.931732 
	C457.690582,153.717926 445.851196,165.649002 433.966370,177.533890 
	C420.974640,190.525635 407.933563,203.468567 395.013977,216.531647 
	C389.325775,222.283051 383.991028,228.384232 378.295563,234.128082 
	C374.208069,238.250351 369.626648,241.883408 365.546600,246.012405 
	C351.938171,259.783905 338.580414,273.804626 324.890991,287.494232 
	C311.217407,301.167999 297.194031,314.491211 283.445526,328.090973 
	C268.646149,342.730225 253.936157,357.460876 239.285736,372.249298 
	C228.792191,382.841736 218.553040,393.686768 208.027084,404.246368 
	C200.058426,412.240448 191.733170,419.878052 183.713913,427.822968 
	C169.571411,441.834259 155.477722,455.896118 141.484543,470.056305 
	C130.644623,481.025635 120.105408,492.293182 109.215576,503.211761 
	C100.326431,512.124329 90.978302,520.578918 82.084976,529.487488 
	C71.788795,539.801208 61.946941,550.571106 51.578030,560.808899 
	C40.532482,571.714783 29.101233,582.230042 17.502733,592.958923 
	C17.120844,589.968567 17.074606,586.935181 17.431664,583.409790 
	C18.643734,582.357605 19.559431,581.904663 20.245382,581.221191 
	C32.558174,568.953186 44.809341,556.623230 57.144039,544.377380 
	C68.607742,532.996277 80.237709,521.781799 91.646217,510.346100 
	C113.100479,488.840759 134.433823,467.214813 155.845734,445.667114 
	C166.570068,434.874725 177.356644,424.144196 188.115067,413.385681 
	C227.199921,374.300690 266.284729,335.215637 305.369598,296.130646 
	C317.003784,284.496399 328.614105,272.838165 340.276672,261.232452 
	C377.544952,224.145706 414.849335,187.095215 452.096619,149.987473 
	C458.437897,143.669952 464.499847,137.071869 470.849396,130.763000 
	C472.144989,129.475708 474.152557,128.904968 475.831909,128.003922 
	C475.880585,131.037323 475.929291,134.070709 475.905853,137.553711 
z"/>
<path fill="#EECD53" opacity="1.000000" stroke="none" 
	d="
M17.102772,371.454834 
	C18.863398,369.745392 20.753452,368.686401 22.230156,367.213135 
	C54.784725,334.732697 87.293541,302.206451 119.811081,269.688934 
	C163.489822,226.010162 207.168579,182.331390 250.847321,138.652618 
	C286.161072,103.338882 321.486359,68.036644 356.772064,32.694946 
	C360.603058,28.857885 364.205627,24.792740 367.955658,20.499586 
	C372.024689,20.123098 376.052246,20.080418 380.503845,20.432899 
	C380.132172,21.871769 379.444885,23.023920 378.525269,23.943789 
	C259.759735,142.741760 140.980865,261.526398 22.147097,380.256073 
	C20.858168,381.543884 18.840399,382.102173 17.162868,383.001007 
	C17.121803,379.304779 17.080742,375.608551 17.102772,371.454834 
z"/>
<path fill="#93AF32" opacity="1.000000" stroke="none" 
	d="
M17.165649,523.003601 
	C17.121948,519.970032 17.078239,516.936523 17.434801,513.410278 
	C19.469257,511.532593 21.212408,510.256622 22.722147,508.747192 
	C171.955292,359.547272 321.168671,210.327576 470.415009,61.140827 
	C472.007141,59.549320 474.016052,58.374760 475.830383,57.005539 
	C475.228699,60.053528 474.627014,63.101521 473.720581,66.611343 
	C471.877686,68.948151 470.486755,70.970299 468.780426,72.677162 
	C319.718658,221.784210 170.634262,370.868591 21.520781,519.923889 
	C20.281366,521.162842 18.626528,521.986206 17.165649,523.003601 
z"/>
<path fill="#B7BF3E" opacity="1.000000" stroke="none" 
	d="
M464.003967,20.167486 
	C466.560974,20.870899 469.117950,21.574316 471.730286,22.899920 
	C471.346527,24.024929 470.935394,24.555702 470.464447,25.026669 
	C320.707245,174.792236 170.947357,324.555145 21.157150,474.287750 
	C20.039021,475.405426 18.505011,476.107086 17.165203,477.003021 
	C17.122755,473.970123 17.080305,470.937195 17.434563,467.415833 
	C19.110729,465.895111 20.498310,464.971008 21.654318,463.815247 
	C168.098709,317.403198 314.527710,170.975769 460.926819,24.518457 
	C462.164612,23.280125 462.987396,21.626959 464.003967,20.167486 
z"/>
<path fill="#6A9C2A" opacity="1.000000" stroke="none" 
	d="
M17.165157,578.001892 
	C17.119215,575.299377 17.073275,572.596863 17.447536,569.439941 
	C18.348576,568.873413 18.987188,568.921692 19.287605,568.626099 
	C33.390556,554.751831 47.491009,540.874756 61.532688,526.938538 
	C73.040466,515.517212 84.475716,504.022858 95.940636,492.558380 
	C133.120956,455.379547 170.300110,418.199554 207.479706,381.019989 
	C215.805161,372.694550 224.187134,364.424713 232.443787,356.031586 
	C247.377335,340.851196 262.104492,325.465820 277.148865,310.396637 
	C341.870026,245.568832 406.671356,180.821045 471.477478,116.078125 
	C472.716553,114.840233 474.372284,114.019356 475.833588,113.003906 
	C475.882141,116.037033 475.930695,119.070152 475.574219,122.593575 
	C466.699463,131.023178 458.016479,138.748871 449.805145,146.946976 
	C433.506226,163.219696 417.532776,179.817810 401.304138,196.161636 
	C381.523895,216.082352 361.619598,235.879898 341.768799,255.730530 
	C333.438690,264.060547 325.154358,272.436951 316.767761,280.709686 
	C301.503265,295.766968 286.084900,310.669403 270.908112,325.814209 
	C259.284424,337.413361 247.989182,349.340820 236.446243,361.021881 
	C224.771454,372.836334 212.971741,384.527344 201.226761,396.272400 
	C189.368790,408.130371 177.510818,419.988312 165.652878,431.846313 
	C148.643204,448.855988 131.658554,465.890808 114.611931,482.863373 
	C107.569695,489.875031 100.308266,496.667206 93.295509,503.707611 
	C69.561539,527.535095 45.912663,551.447510 22.151152,575.247498 
	C20.862389,576.538269 18.843939,577.100525 17.165157,578.001892 
z"/>
<path fill="#C6C544" opacity="1.000000" stroke="none" 
	d="
M17.164600,458.003418 
	C17.122206,454.969727 17.079809,451.936005 17.433760,448.409607 
	C19.111967,446.886017 20.503630,445.965027 21.660128,444.808777 
	C161.767624,304.734222 301.859467,164.643997 441.921234,24.523705 
	C443.160675,23.283726 443.984100,21.627888 445.001770,20.166222 
	C448.035492,20.120817 451.069214,20.075413 454.515015,20.429583 
	C453.895721,22.108326 452.972748,23.495852 451.817566,24.651283 
	C308.403656,168.097672 164.974319,311.528625 21.514942,454.929565 
	C20.277266,456.166687 18.623888,456.987976 17.164600,458.003418 
z"/>
<path fill="#709E2A" opacity="1.000000" stroke="none" 
	d="
M475.905243,112.558395 
	C474.372284,114.019356 472.716553,114.840233 471.477478,116.078125 
	C406.671356,180.821045 341.870026,245.568832 277.148865,310.396637 
	C262.104492,325.465820 247.377335,340.851196 232.443787,356.031586 
	C224.187134,364.424713 215.805161,372.694550 207.479706,381.019989 
	C170.300110,418.199554 133.120956,455.379547 95.940636,492.558380 
	C84.475716,504.022858 73.040466,515.517212 61.532688,526.938538 
	C47.491009,540.874756 33.390556,554.751831 19.287605,568.626099 
	C18.987188,568.921692 18.348576,568.873413 17.517365,568.994446 
	C17.120972,565.969727 17.074957,562.936218 17.097794,559.452881 
	C19.198931,557.747559 21.569658,556.830811 23.214956,555.187683 
	C107.840782,470.672211 192.404968,386.095032 276.975647,301.524353 
	C341.404816,237.095154 405.831329,172.663284 470.278778,108.252327 
	C471.788666,106.743286 473.532928,105.468758 475.501038,104.044312 
	C475.881744,106.706818 475.929321,109.409851 475.905243,112.558395 
z"/>
<path fill="#D3CA49" opacity="1.000000" stroke="none" 
	d="
M17.165737,439.002960 
	C17.123621,435.969360 17.081503,432.935730 17.434727,429.409424 
	C19.346603,427.651276 20.971806,426.494598 22.363747,425.104401 
	C55.321461,392.187775 88.254089,359.246002 121.191299,326.308807 
	C177.566681,269.933472 233.929352,213.545395 290.329315,157.194672 
	C300.335571,147.197128 310.582001,137.439621 320.569275,127.423470 
	C342.147400,105.782959 363.611877,84.029160 385.157349,62.356010 
	C397.602875,49.836761 410.136139,37.404682 422.568787,24.872744 
	C423.920898,23.509834 424.866913,21.744097 426.001312,20.165207 
	C429.034912,20.120958 432.068512,20.076710 435.509613,20.431530 
	C435.699982,21.274164 435.579041,21.811182 435.251923,22.147831 
	C422.088654,35.693741 409.003143,49.317265 395.691833,62.716438 
	C387.447021,71.015648 378.781036,78.894699 370.439117,87.099625 
	C360.433472,96.940994 350.571533,106.928482 340.647369,116.852654 
	C330.703094,126.796906 320.708313,136.691269 310.826202,146.696899 
	C295.545685,162.168396 280.434387,177.807983 265.075897,193.201202 
	C253.380219,204.923325 241.342545,216.303436 229.582169,227.961945 
	C213.479980,243.924637 197.495987,260.006592 181.462082,276.038147 
	C171.165909,286.332794 160.871002,296.628723 150.575623,306.924133 
	C134.745316,322.754486 118.864166,338.534393 103.107521,354.437683 
	C95.857552,361.755127 88.994308,369.457520 81.698845,376.727600 
	C72.585236,385.809601 63.131466,394.549286 53.962517,403.576904 
	C43.081234,414.290466 32.368153,425.174713 21.519571,435.921814 
	C20.273617,437.156097 18.626722,437.985718 17.165737,439.002960 
z"/>
<path fill="#29A2CE" opacity="1.000000" stroke="none" 
	d="
M475.900238,364.545258 
	C473.762390,366.293579 471.349976,367.245941 469.680237,368.933197 
	C460.241455,378.471069 451.118347,388.322906 441.623169,397.802887 
	C430.866394,408.542450 419.764008,418.934906 408.934601,429.602844 
	C397.733765,440.636719 386.680054,451.819946 375.562134,462.937988 
	C366.096649,472.403564 356.565948,481.805023 347.184235,491.352905 
	C337.584167,501.122955 328.232605,511.138367 318.580383,520.855713 
	C310.667511,528.821960 302.402405,536.437073 294.418152,544.333923 
	C278.509277,560.068726 262.615570,575.820251 246.851685,591.699951 
	C235.995422,602.635986 225.495514,613.926636 214.601730,624.824280 
	C204.060226,635.369385 193.147644,645.542480 182.527771,656.010559 
	C170.796936,667.573792 159.158340,679.232239 147.606094,690.973755 
	C144.842133,693.782959 142.579468,697.085449 140.044098,700.496460 
	C136.305298,700.877991 132.608612,700.924133 128.461090,700.547485 
	C129.075272,698.514832 129.911575,696.679199 131.241821,695.330994 
	C141.123993,685.315063 151.104218,675.395874 161.053741,665.446350 
	C177.273804,649.226318 193.493896,633.006226 209.713943,616.786133 
	C227.342392,599.157715 244.970856,581.529297 262.599304,563.900879 
	C276.344879,550.155334 290.090363,536.409851 303.835876,522.664368 
	C314.403290,512.096924 324.970642,501.529480 335.538055,490.962097 
	C351.753235,474.746918 367.929535,458.492554 384.202759,442.335876 
	C390.769714,435.815887 397.684784,429.644623 404.204041,423.078949 
	C419.209106,407.967102 434.059540,392.701813 448.998199,377.523926 
	C450.958221,375.532501 453.129974,373.749847 455.096313,371.764221 
	C460.833038,365.971283 466.469025,360.077484 472.271332,354.351776 
	C473.098236,353.535797 474.628448,353.432556 475.833130,352.999451 
	C475.878296,356.695862 475.923462,360.392242 475.900238,364.545258 
z"/>
<path fill="#8CAB2F" opacity="1.000000" stroke="none" 
	d="
M17.098816,523.449585 
	C18.626528,521.986206 20.281366,521.162842 21.520781,519.923889 
	C170.634262,370.868591 319.718658,221.784210 468.780426,72.677162 
	C470.486755,70.970299 471.877686,68.948151 473.766357,67.016754 
	C474.736206,69.691330 475.355591,72.422318 475.572388,75.618820 
	C473.534882,77.467751 471.790009,78.741173 470.280640,80.250175 
	C321.044983,229.452408 171.829269,378.674561 22.580627,527.863770 
	C20.987978,529.455811 18.979084,530.631348 17.164494,532.001343 
	C17.120321,529.299377 17.076153,526.597473 17.098816,523.449585 
z"/>
<path fill="#B0BC3C" opacity="1.000000" stroke="none" 
	d="
M17.099808,477.428528 
	C18.505011,476.107086 20.039021,475.405426 21.157150,474.287750 
	C170.947357,324.555145 320.707245,174.792236 470.464447,25.026669 
	C470.935394,24.555702 471.346527,24.024929 471.917725,23.208652 
	C473.350433,25.351480 474.651031,27.807760 475.559937,30.674652 
	C467.088043,38.602272 458.813232,45.922779 450.976593,53.685642 
	C441.006622,63.561714 431.483276,73.886978 421.602905,83.855537 
	C404.906982,100.700485 388.081970,117.417473 371.311188,134.188217 
	C363.330505,142.168884 355.349579,150.149368 347.368896,158.130035 
	C330.362549,175.136353 313.407074,192.193954 296.328827,209.127762 
	C287.641052,217.742050 278.584320,225.986267 269.955933,234.658051 
	C254.024887,250.669266 238.319046,266.904297 222.454514,282.982086 
	C214.225662,291.321564 205.896454,299.563110 197.544662,307.779907 
	C182.835083,322.251801 168.212616,336.816589 153.287079,351.063141 
	C142.403854,361.451294 130.768295,371.062164 120.060875,381.620667 
	C108.843582,392.681946 99.207619,405.171539 87.235825,415.688385 
	C70.628876,430.277130 55.382439,446.416656 39.589272,461.928650 
	C33.526798,467.883179 27.598949,473.974976 21.523924,479.916443 
	C20.267977,481.144745 18.631145,481.983582 17.169861,483.001923 
	C17.124712,481.285950 17.079565,479.570007 17.099808,477.428528 
z"/>
<path fill="#288ED4" opacity="1.000000" stroke="none" 
	d="
M201.465637,700.900940 
	C202.019745,699.371338 202.841614,697.714722 204.080566,696.474915 
	C293.140808,607.353699 382.232788,518.264160 471.340515,429.190491 
	C472.496216,428.035248 473.886749,427.114868 475.500549,426.044098 
	C475.880096,431.027863 475.926788,436.052368 475.549469,441.544006 
	C473.397858,443.193268 471.434387,444.138977 469.977234,445.592346 
	C435.814178,479.665894 401.705688,513.794189 367.587433,547.912659 
	C357.609497,557.890747 347.632690,567.869995 337.654938,577.848206 
	C299.266846,616.238220 260.859314,654.608765 222.540222,693.067566 
	C220.326065,695.289795 218.831116,698.228699 217.001450,700.834045 
	C211.976990,700.878906 206.952545,700.923706 201.465637,700.900940 
z"/>
<path fill="#BDC241" opacity="1.000000" stroke="none" 
	d="
M17.100952,458.449768 
	C18.623888,456.987976 20.277266,456.166687 21.514942,454.929565 
	C164.974319,311.528625 308.403656,168.097672 451.817566,24.651283 
	C452.972748,23.495852 453.895721,22.108326 454.965210,20.496901 
	C457.706177,20.120100 460.409088,20.075558 463.557983,20.099251 
	C462.987396,21.626959 462.164612,23.280125 460.926819,24.518457 
	C314.527710,170.975769 168.098709,317.403198 21.654318,463.815247 
	C20.498310,464.971008 19.110729,465.895111 17.499001,466.965607 
	C17.123592,464.301239 17.080452,461.598663 17.100952,458.449768 
z"/>
<path fill="#2D9469" opacity="1.000000" stroke="none" 
	d="
M475.834717,254.998169 
	C475.880432,257.700439 475.926117,260.402710 475.545349,263.553223 
	C473.516083,265.064178 471.677155,265.890717 470.343933,267.223267 
	C327.214447,410.281342 184.121124,553.375610 41.056484,696.498596 
	C39.824299,697.731201 39.007793,699.379456 37.997211,700.833618 
	C35.623920,700.881897 33.250626,700.930176 30.443687,700.552002 
	C31.312637,698.278320 32.378178,696.194275 33.952114,694.617920 
	C87.642525,640.844788 141.380997,587.119690 195.112854,533.387939 
	C286.653809,441.847229 378.188873,350.300690 469.784485,258.814758 
	C471.430176,257.171051 473.801819,256.254150 475.834717,254.998169 
z"/>
<path fill="#2C70BE" opacity="1.000000" stroke="none" 
	d="
M475.833191,487.005127 
	C475.881653,493.028442 475.930145,499.051727 475.552429,505.543030 
	C473.517944,507.073395 471.678070,507.902405 470.336823,509.233795 
	C455.136505,524.322083 440.012451,539.487305 424.867920,554.631836 
	C377.810944,601.688843 330.744568,648.736633 283.745911,695.851868 
	C282.459167,697.141785 281.900269,699.157837 281.001984,700.835266 
	C274.978729,700.879822 268.955444,700.924438 262.472473,700.546875 
	C262.958893,698.632996 263.666931,696.903381 264.885315,695.683594 
	C333.495789,626.996582 402.142456,558.345703 470.846252,489.752014 
	C472.136536,488.463806 474.154663,487.904541 475.833191,487.005127 
z"/>
<path fill="#2989D1" opacity="1.000000" stroke="none" 
	d="
M217.463211,700.902100 
	C218.831116,698.228699 220.326065,695.289795 222.540222,693.067566 
	C260.859314,654.608765 299.266846,616.238220 337.654938,577.848206 
	C347.632690,567.869995 357.609497,557.890747 367.587433,547.912659 
	C401.705688,513.794189 435.814178,479.665894 469.977234,445.592346 
	C471.434387,444.138977 473.397858,443.193268 475.479614,442.006256 
	C475.880981,446.694458 475.928192,451.387512 475.558594,456.584778 
	C473.881348,457.848999 472.410675,458.395966 471.392212,459.401093 
	C458.144012,472.476257 444.944794,485.601257 431.763855,498.744415 
	C418.428436,512.041626 405.068268,525.314819 391.832489,538.710754 
	C383.808929,546.831421 376.136261,555.300537 368.059753,563.366638 
	C359.281464,572.133728 350.104889,580.501770 341.314423,589.257080 
	C334.291321,596.252136 327.687561,603.666870 320.710205,610.709595 
	C314.675415,616.800903 308.294067,622.547607 302.215210,628.596741 
	C293.786713,636.984070 285.550354,645.564453 277.130981,653.961121 
	C271.502472,659.574402 265.664062,664.976562 259.983917,670.538940 
	C255.056305,675.364319 250.060974,680.135986 245.386505,685.199951 
	C240.736771,690.237061 236.449646,695.608826 232.003510,700.833862 
	C227.310669,700.879333 222.617813,700.924744 217.463211,700.902100 
z"/>
<path fill="#F3B753" opacity="1.000000" stroke="none" 
	d="
M313.539673,20.101513 
	C313.098511,21.841688 312.541260,23.860111 311.253754,25.149046 
	C214.988052,121.521011 118.667664,217.838364 22.311796,314.120178 
	C21.092707,315.338318 19.362000,316.044464 17.516747,316.993103 
	C17.120794,313.300598 17.078203,309.604614 17.432316,305.411682 
	C19.109407,303.886414 20.499889,302.968262 21.654476,301.814117 
	C114.098579,209.404114 206.526901,116.978333 298.923553,24.520903 
	C300.161194,23.282438 300.980774,21.626177 301.995483,20.164923 
	C305.691223,20.123041 309.386993,20.081156 313.539673,20.101513 
z"/>
<path fill="#309155" opacity="1.000000" stroke="none" 
	d="
M475.833221,236.997528 
	C475.880310,239.371155 475.927399,241.744766 475.569519,244.580017 
	C473.774689,246.196060 472.281860,247.247559 471.009583,248.519577 
	C322.165222,397.333008 173.336502,546.162048 24.520163,695.003479 
	C23.241169,696.282654 22.140862,697.740479 20.957123,699.114929 
	C19.651918,696.665833 18.346716,694.216675 17.480984,691.382935 
	C19.743925,690.035156 21.911795,689.427429 23.333677,688.049805 
	C31.159239,680.467773 38.856457,672.750488 46.494022,664.977844 
	C55.372482,655.942261 64.017937,646.675049 72.991013,637.735779 
	C86.501022,624.276611 100.308182,611.115479 113.800346,597.638794 
	C125.586540,585.866028 137.008301,573.728638 148.783371,561.944519 
	C159.654907,551.064636 170.870529,540.528809 181.763702,529.670044 
	C188.472427,522.982483 194.735977,515.848877 201.429382,509.145172 
	C207.623291,502.941681 214.276855,497.196320 220.453232,490.976349 
	C230.224854,481.135681 239.631058,470.930969 249.442841,461.131561 
	C260.288788,450.299194 271.566986,439.898987 282.390564,429.045013 
	C303.013519,408.364166 323.380615,387.428284 343.987518,366.731323 
	C354.356934,356.316620 365.138153,346.312195 375.519257,335.908783 
	C388.739105,322.660522 401.648071,309.101990 414.869080,295.854919 
	C425.294189,285.409332 436.073578,275.317871 446.531616,264.904419 
	C452.854187,258.608826 458.715424,251.848038 465.075500,245.592697 
	C468.330566,242.391266 472.226807,239.841721 475.833221,236.997528 
z"/>
<path fill="#388D3B" opacity="1.000000" stroke="none" 
	d="
M475.833527,213.000336 
	C475.880646,215.372772 475.927765,217.745224 475.570740,220.595093 
	C473.534180,222.458496 471.794037,223.736664 470.284698,225.245682 
	C321.046875,374.450745 171.828568,523.675354 22.577339,672.867004 
	C20.987000,674.456726 18.979338,675.628906 17.166473,676.996033 
	C17.118088,674.294128 17.069702,671.592163 17.448177,668.439941 
	C19.603104,666.806580 21.563387,665.857239 23.024002,664.405212 
	C41.360558,646.176453 59.624863,627.875061 77.907654,609.592224 
	C95.648521,591.851318 113.404129,574.125122 131.110733,556.350098 
	C133.209595,554.243103 134.897736,551.723267 137.022003,549.646057 
	C143.165268,543.639038 149.555740,537.881592 155.619598,531.797363 
	C161.804794,525.591370 167.569748,518.965088 173.784378,512.790222 
	C182.831955,503.800629 192.192200,495.126373 201.282074,486.178436 
	C211.989746,475.637878 222.551071,464.948700 233.175842,454.323975 
	C243.211609,444.288177 253.248123,434.253113 263.282837,424.216278 
	C268.076904,419.421204 272.920593,414.674194 277.642303,409.808807 
	C281.222565,406.119568 284.572510,402.206635 288.156342,398.520996 
	C292.854889,393.688965 297.675079,388.974945 302.456787,384.224091 
	C307.852325,378.863373 313.244324,373.498871 318.674805,368.173676 
	C321.633209,365.272705 324.751068,362.531067 327.649231,359.572784 
	C332.035034,355.095917 336.171204,350.370575 340.627319,345.967255 
	C351.817993,334.909149 363.197937,324.042328 374.365845,312.961578 
	C381.473633,305.909271 388.236755,298.509796 395.335968,291.448517 
	C405.430511,281.407928 415.784332,271.627441 425.851044,261.559540 
	C433.076172,254.333557 439.880493,246.686462 447.113831,239.469055 
	C455.081421,231.518967 463.300354,223.819412 471.474030,216.078522 
	C472.752350,214.867859 474.371796,214.017365 475.833527,213.000336 
z"/>
<path fill="#CAC746" opacity="1.000000" stroke="none" 
	d="
M17.102989,439.449402 
	C18.626722,437.985718 20.273617,437.156097 21.519571,435.921814 
	C32.368153,425.174713 43.081234,414.290466 53.962517,403.576904 
	C63.131466,394.549286 72.585236,385.809601 81.698845,376.727600 
	C88.994308,369.457520 95.857552,361.755127 103.107521,354.437683 
	C118.864166,338.534393 134.745316,322.754486 150.575623,306.924133 
	C160.871002,296.628723 171.165909,286.332794 181.462082,276.038147 
	C197.495987,260.006592 213.479980,243.924637 229.582169,227.961945 
	C241.342545,216.303436 253.380219,204.923325 265.075897,193.201202 
	C280.434387,177.807983 295.545685,162.168396 310.826202,146.696899 
	C320.708313,136.691269 330.703094,126.796906 340.647369,116.852654 
	C350.571533,106.928482 360.433472,96.940994 370.439117,87.099625 
	C378.781036,78.894699 387.447021,71.015648 395.691833,62.716438 
	C409.003143,49.317265 422.088654,35.693741 435.251923,22.147831 
	C435.579041,21.811182 435.699982,21.274164 435.959869,20.497868 
	C438.704926,20.121492 441.407227,20.077845 444.555664,20.100208 
	C443.984100,21.627888 443.160675,23.283726 441.921234,24.523705 
	C301.859467,164.643997 161.767624,304.734222 21.660128,444.808777 
	C20.503630,445.965027 19.111967,446.886017 17.497971,447.959167 
	C17.123970,445.299561 17.082106,442.597717 17.102989,439.449402 
z"/>
<path fill="#EACD52" opacity="1.000000" stroke="none" 
	d="
M17.099731,383.452454 
	C18.840399,382.102173 20.858168,381.543884 22.147097,380.256073 
	C140.980865,261.526398 259.759735,142.741760 378.525269,23.943789 
	C379.444885,23.023920 380.132172,21.871769 380.963135,20.495483 
	C383.701996,20.120888 386.405609,20.078871 389.549652,20.454096 
	C388.806824,22.600771 387.858459,24.563965 386.404999,26.024490 
	C365.280518,47.251682 344.137665,68.461098 322.894348,89.569290 
	C309.684906,102.694740 296.204315,115.547714 283.022522,128.700470 
	C272.672363,139.027832 262.703918,149.737350 252.375092,160.086685 
	C207.557587,204.993149 162.670120,249.829803 117.808075,294.691833 
	C108.262955,304.236969 98.768578,313.833557 89.160721,323.315094 
	C75.060303,337.230103 60.800411,350.984192 46.760792,364.959869 
	C38.190887,373.490723 29.948647,382.350159 21.440254,390.944214 
	C20.391954,392.003052 18.607925,392.333496 17.164839,393.001495 
	C17.122089,389.968964 17.079340,386.936401 17.099731,383.452454 
z"/>
<path fill="#2A9E97" opacity="1.000000" stroke="none" 
	d="
M475.900574,304.550964 
	C474.135986,306.250702 472.245972,307.311523 470.769226,308.786224 
	C421.716400,357.771606 372.761688,406.855255 323.670685,455.802246 
	C243.797775,535.440979 163.834732,614.989258 83.951584,694.617676 
	C82.374588,696.189636 81.311485,698.277222 80.001968,700.478333 
	C77.292961,700.879517 74.590591,700.926514 71.448814,700.548584 
	C71.957268,698.631592 72.687538,696.929138 73.890877,695.683838 
	C78.949127,690.449402 84.116371,685.318726 89.302780,680.209961 
	C104.060219,665.673401 118.930214,651.250061 133.593979,636.619812 
	C144.467468,625.771118 155.035370,614.616882 165.835434,603.693665 
	C177.132065,592.268372 188.543503,580.956543 199.904800,569.595215 
	C213.570679,555.929382 227.236572,542.263550 240.902466,528.597717 
	C256.136932,513.363281 271.329224,498.086273 286.626831,482.915436 
	C292.696228,476.896301 299.145111,471.257507 305.165222,465.191498 
	C317.309143,452.955109 329.182251,440.449554 341.351837,428.239166 
	C349.630829,419.932465 358.368073,412.082245 366.641663,403.770386 
	C378.327759,392.030182 389.713623,379.991699 401.342316,368.193542 
	C411.939240,357.442230 422.649414,346.801483 433.387695,336.190948 
	C438.776764,330.866028 444.433838,325.811493 449.797791,320.462280 
	C455.529663,314.746155 460.934235,308.698822 466.731567,303.052643 
	C469.463806,300.391632 472.780426,298.330627 475.832214,295.997711 
	C475.877441,298.700134 475.922638,301.402557 475.900574,304.550964 
z"/>
<path fill="#348E45" opacity="1.000000" stroke="none" 
	d="
M17.093281,677.429138 
	C18.979338,675.628906 20.987000,674.456726 22.577339,672.867004 
	C171.828568,523.675354 321.046875,374.450745 470.284698,225.245682 
	C471.794037,223.736664 473.534180,222.458496 475.499878,221.034683 
	C475.880676,223.370987 475.928192,225.745163 475.571106,228.601059 
	C473.531738,230.467743 471.787903,231.743576 470.277771,233.253220 
	C368.262573,335.234070 266.266144,437.233765 164.268127,539.231812 
	C117.266563,586.233398 70.276802,633.246765 23.214281,680.187195 
	C21.568399,681.828796 19.198227,682.744263 17.165627,683.998108 
	C17.117109,681.952820 17.068598,679.907532 17.093281,677.429138 
z"/>
<path fill="#2980CB" opacity="1.000000" stroke="none" 
	d="
M232.398605,700.901123 
	C236.449646,695.608826 240.736771,690.237061 245.386505,685.199951 
	C250.060974,680.135986 255.056305,675.364319 259.983917,670.538940 
	C265.664062,664.976562 271.502472,659.574402 277.130981,653.961121 
	C285.550354,645.564453 293.786713,636.984070 302.215210,628.596741 
	C308.294067,622.547607 314.675415,616.800903 320.710205,610.709595 
	C327.687561,603.666870 334.291321,596.252136 341.314423,589.257080 
	C350.104889,580.501770 359.281464,572.133728 368.059753,563.366638 
	C376.136261,555.300537 383.808929,546.831421 391.832489,538.710754 
	C405.068268,525.314819 418.428436,512.041626 431.763855,498.744415 
	C444.944794,485.601257 458.144012,472.476257 471.392212,459.401093 
	C472.410675,458.395966 473.881348,457.848999 475.487946,457.046387 
	C475.880859,461.707977 475.927643,466.412231 475.571075,471.600525 
	C474.478394,472.525848 473.684479,472.861328 473.115326,473.424103 
	C463.675812,482.757690 454.237579,492.092987 444.853363,501.482117 
	C431.984131,514.358215 419.176178,527.295532 406.313751,540.178406 
	C387.907959,558.613403 369.476715,577.023010 351.056305,595.443359 
	C341.098969,605.400696 331.141479,615.357910 321.184143,625.315247 
	C311.761230,634.738098 302.395782,644.219421 292.902069,653.570374 
	C278.475922,667.779663 263.932404,681.869934 249.534668,696.107727 
	C248.320328,697.308594 247.829849,699.241455 247.003082,700.834229 
	C242.266632,700.878967 237.530182,700.923706 232.398605,700.901123 
z"/>
<path fill="#E6CD50" opacity="1.000000" stroke="none" 
	d="
M17.102131,393.452209 
	C18.607925,392.333496 20.391954,392.003052 21.440254,390.944214 
	C29.948647,382.350159 38.190887,373.490723 46.760792,364.959869 
	C60.800411,350.984192 75.060303,337.230103 89.160721,323.315094 
	C98.768578,313.833557 108.262955,304.236969 117.808075,294.691833 
	C162.670120,249.829803 207.557587,204.993149 252.375092,160.086685 
	C262.703918,149.737350 272.672363,139.027832 283.022522,128.700470 
	C296.204315,115.547714 309.684906,102.694740 322.894348,89.569290 
	C344.137665,68.461098 365.280518,47.251682 386.404999,26.024490 
	C387.858459,24.563965 388.806824,22.600771 389.995758,20.518383 
	C393.033905,20.122709 396.066315,20.079990 399.506348,20.436440 
	C396.679077,24.320681 393.499084,27.858677 390.199127,31.281019 
	C379.763306,42.103905 369.345306,52.945221 358.800812,63.661720 
	C349.142609,73.477448 339.384979,83.197121 329.568207,92.854477 
	C319.853973,102.410919 309.914154,111.738968 300.244568,121.339684 
	C279.696411,141.741516 259.209991,162.206177 238.800186,182.746323 
	C230.100174,191.501877 221.780350,200.635696 213.062988,209.373367 
	C202.239731,220.221848 191.099167,230.753372 180.253738,241.580170 
	C171.008011,250.810013 162.103134,260.381897 152.835083,269.588654 
	C141.562302,280.786896 129.998535,291.691742 118.686432,302.850983 
	C106.474968,314.897491 94.355972,327.039001 82.296448,339.237762 
	C73.107201,348.533081 64.118073,358.025909 54.958565,367.350952 
	C45.905159,376.568085 36.846645,385.784607 27.585329,394.790558 
	C24.432497,397.856445 20.656509,400.281525 17.165272,402.999420 
	C17.123323,399.967255 17.081373,396.935059 17.102131,393.452209 
z"/>
<path fill="#338F4A" opacity="1.000000" stroke="none" 
	d="
M17.093409,684.431274 
	C19.198227,682.744263 21.568399,681.828796 23.214281,680.187195 
	C70.276802,633.246765 117.266563,586.233398 164.268127,539.231812 
	C266.266144,437.233765 368.262573,335.234070 470.277771,233.253220 
	C471.787903,231.743576 473.531738,230.467743 475.499634,229.040619 
	C475.879639,231.371597 475.926514,233.744720 475.903320,236.557693 
	C472.226807,239.841721 468.330566,242.391266 465.075500,245.592697 
	C458.715424,251.848038 452.854187,258.608826 446.531616,264.904419 
	C436.073578,275.317871 425.294189,285.409332 414.869080,295.854919 
	C401.648071,309.101990 388.739105,322.660522 375.519257,335.908783 
	C365.138153,346.312195 354.356934,356.316620 343.987518,366.731323 
	C323.380615,387.428284 303.013519,408.364166 282.390564,429.045013 
	C271.566986,439.898987 260.288788,450.299194 249.442841,461.131561 
	C239.631058,470.930969 230.224854,481.135681 220.453232,490.976349 
	C214.276855,497.196320 207.623291,502.941681 201.429382,509.145172 
	C194.735977,515.848877 188.472427,522.982483 181.763702,529.670044 
	C170.870529,540.528809 159.654907,551.064636 148.783371,561.944519 
	C137.008301,573.728638 125.586540,585.866028 113.800346,597.638794 
	C100.308182,611.115479 86.501022,624.276611 72.991013,637.735779 
	C64.017937,646.675049 55.372482,655.942261 46.494022,664.977844 
	C38.856457,672.750488 31.159239,680.467773 23.333677,688.049805 
	C21.911795,689.427429 19.743925,690.035156 17.550045,690.998779 
	C17.126820,688.954285 17.074003,686.909302 17.093409,684.431274 
z"/>
<path fill="#EE854B" opacity="1.000000" stroke="none" 
	d="
M230.038849,20.877983 
	C235.048309,20.599184 240.057785,20.320389 245.489380,20.437469 
	C244.882599,22.113642 243.963440,23.503651 242.809082,24.658564 
	C169.069626,98.432831 95.314369,172.191284 21.526360,245.916962 
	C20.287357,247.154922 18.630297,247.974457 17.168312,248.989243 
	C17.120501,243.633423 17.072687,238.277588 17.448137,232.454910 
	C19.364468,231.042038 21.088055,230.329453 22.316978,229.115952 
	C55.619404,196.231445 88.883774,163.308365 122.124199,130.361160 
	C132.739685,119.839310 143.333740,109.294212 153.818069,98.642105 
	C162.568344,89.751801 171.046082,80.592453 179.831024,71.737305 
	C185.797562,65.723106 192.156693,60.100491 198.212769,54.172504 
	C205.202835,47.330235 212.136429,40.425591 218.931168,33.390247 
	C222.802170,29.382166 226.347092,25.059172 230.038849,20.877983 
z"/>
<path fill="#304FA1" opacity="1.000000" stroke="none" 
	d="
M475.908691,584.539795 
	C475.354736,585.122009 474.718903,585.082764 474.415009,585.381348 
	C463.757996,595.852234 453.115936,606.338440 442.509369,616.860352 
	C437.692596,621.638672 432.969910,626.511658 428.177979,631.315186 
	C419.015320,640.500061 409.897949,649.731506 400.642242,658.821899 
	C391.076263,668.216980 381.260651,677.359619 371.771790,686.830688 
	C367.599548,690.995117 363.965912,695.699219 360.045502,700.497070 
	C351.646423,700.881348 343.289612,700.926880 334.509186,700.569702 
	C335.112823,698.888916 336.031464,697.502502 337.183319,696.348877 
	C364.062256,669.428711 390.966370,642.533691 417.865906,615.634094 
	C435.611176,597.888855 453.341949,580.128967 471.130585,562.427307 
	C472.488617,561.075928 474.256378,560.136292 475.833710,559.005310 
	C475.883026,567.362183 475.932343,575.719055 475.908691,584.539795 
z"/>
<path fill="#2B9B89" opacity="1.000000" stroke="none" 
	d="
M63.997925,700.833496 
	C61.624882,700.881531 59.251831,700.929565 56.477722,700.572632 
	C57.108166,698.888306 58.031265,697.500610 59.186539,696.345093 
	C196.598679,558.900513 334.026245,421.471466 471.484009,284.072540 
	C472.721863,282.835236 474.376038,282.014465 475.835846,280.999207 
	C475.880951,283.372192 475.926056,285.745178 475.569214,288.600464 
	C473.886230,290.113922 472.495880,291.035736 471.339600,292.191711 
	C336.565277,426.933136 201.806488,561.690125 67.077904,696.477295 
	C65.838753,697.716919 65.015404,699.372253 63.997925,700.833496 
z"/>
<path fill="#2A79C6" opacity="1.000000" stroke="none" 
	d="
M247.464691,700.902344 
	C247.829849,699.241455 248.320328,697.308594 249.534668,696.107727 
	C263.932404,681.869934 278.475922,667.779663 292.902069,653.570374 
	C302.395782,644.219421 311.761230,634.738098 321.184143,625.315247 
	C331.141479,615.357910 341.098969,605.400696 351.056305,595.443359 
	C369.476715,577.023010 387.907959,558.613403 406.313751,540.178406 
	C419.176178,527.295532 431.984131,514.358215 444.853363,501.482117 
	C454.237579,492.092987 463.675812,482.757690 473.115326,473.424103 
	C473.684479,472.861328 474.478394,472.525848 475.500732,472.043884 
	C475.881409,476.696045 475.929077,481.388916 475.904968,486.543488 
	C474.154663,487.904541 472.136536,488.463806 470.846252,489.752014 
	C402.142456,558.345703 333.495789,626.996582 264.885315,695.683594 
	C263.666931,696.903381 262.958893,698.632996 262.008972,700.478882 
	C257.312195,700.878906 252.619247,700.924744 247.464691,700.902344 
z"/>
<path fill="#2E60B0" opacity="1.000000" stroke="none" 
	d="
M475.835022,522.004150 
	C475.677307,528.055420 475.519623,534.106689 474.868286,540.573120 
	C472.739624,542.002197 470.846344,542.754211 469.510406,544.071533 
	C458.905670,554.528381 448.406891,565.092773 437.875580,575.624084 
	C397.717773,615.781799 357.553497,655.933105 317.430450,696.125549 
	C316.075470,697.482849 315.136627,699.255554 314.003845,700.834656 
	C308.312988,700.880493 302.622101,700.926331 296.508179,700.570068 
	C297.349213,698.652649 298.504425,697.028625 299.893341,695.637939 
	C332.112640,663.377380 364.357361,631.142273 396.597321,598.902283 
	C421.213043,574.286560 445.809509,549.651550 470.494232,525.105225 
	C471.906189,523.701172 474.038147,523.021179 475.835022,522.004150 
z"/>
<path fill="#81A62C" opacity="1.000000" stroke="none" 
	d="
M17.167624,543.001770 
	C17.118961,540.956909 17.070297,538.912109 17.428661,536.392395 
	C19.115492,534.886780 20.498323,533.959900 21.658548,532.808655 
	C29.780794,524.749146 37.857086,516.643311 45.948067,508.552338 
	C55.923679,498.576752 65.899246,488.601105 75.874847,478.625488 
	C96.773521,457.726868 117.672150,436.828186 138.570801,415.929504 
	C149.945297,404.555023 161.256271,393.116058 172.714005,381.825989 
	C182.152405,372.525726 191.822540,363.460968 201.282928,354.182648 
	C209.808533,345.821167 218.188766,337.311401 226.633118,328.867065 
	C254.395569,301.104645 282.037567,273.220276 309.962738,245.622482 
	C328.647675,227.156570 347.922699,209.287399 366.590302,190.804398 
	C385.868164,171.717194 404.674072,152.154236 423.794250,132.906479 
	C437.035797,119.576569 450.398773,106.365395 463.842285,93.239182 
	C467.594360,89.575714 471.825348,86.402733 475.836639,83.004745 
	C475.885223,84.395981 475.933838,85.787216 475.575195,87.631470 
	C473.769714,89.231865 472.266968,90.274094 470.989807,91.543312 
	C461.216309,101.256157 451.537140,111.064278 441.733032,120.745934 
	C420.798004,141.419403 399.718933,161.947647 378.870300,182.707581 
	C367.261749,194.266800 356.094177,206.267685 344.556763,217.899796 
	C325.278107,237.336639 305.862335,256.637482 286.504272,275.995544 
	C269.943054,292.556763 253.381805,309.117950 236.820587,325.679169 
	C199.068649,363.431152 161.316711,401.183136 123.564819,438.935181 
	C112.757141,449.742828 102.009453,460.611298 91.126953,471.343079 
	C76.851921,485.420410 62.379158,499.298035 48.168587,513.439575 
	C39.344444,522.220825 30.898640,531.381348 22.149675,540.239990 
	C20.869427,541.536316 18.846764,542.099426 17.167624,543.001770 
z"/>
<path fill="#2F57A8" opacity="1.000000" stroke="none" 
	d="
M314.467590,700.903259 
	C315.136627,699.255554 316.075470,697.482849 317.430450,696.125549 
	C357.553497,655.933105 397.717773,615.781799 437.875580,575.624084 
	C448.406891,565.092773 458.905670,554.528381 469.510406,544.071533 
	C470.846344,542.754211 472.739624,542.002197 474.747894,540.973999 
	C475.407532,546.666199 475.693909,552.372681 475.906982,558.542236 
	C474.256378,560.136292 472.488617,561.075928 471.130585,562.427307 
	C453.341949,580.128967 435.611176,597.888855 417.865906,615.634094 
	C390.966370,642.533691 364.062256,669.428711 337.183319,696.348877 
	C336.031464,697.502502 335.112823,698.888916 334.045502,700.500244 
	C327.647430,700.879578 321.289398,700.925720 314.467590,700.903259 
z"/>
<path fill="#29A2AF" opacity="1.000000" stroke="none" 
	d="
M475.901184,324.559570 
	C474.372223,326.017151 472.716461,326.839966 471.476776,328.079071 
	C348.688812,450.807953 225.931290,573.567261 103.189438,696.342285 
	C102.034233,697.497742 101.113861,698.888000 100.042084,700.501587 
	C97.625702,700.880188 95.251106,700.926025 92.436340,700.901794 
	C93.013992,699.370972 93.838028,697.716553 95.077118,696.476929 
	C220.472778,571.022522 345.898743,445.598450 471.340363,320.190033 
	C472.496246,319.034485 473.886017,318.112885 475.499329,317.039185 
	C475.877563,319.370575 475.923126,321.744873 475.901184,324.559570 
z"/>
<path fill="#F2914D" opacity="1.000000" stroke="none" 
	d="
M17.098801,249.446228 
	C18.630297,247.974457 20.287357,247.154922 21.526360,245.916962 
	C95.314369,172.191284 169.069626,98.432831 242.809082,24.658564 
	C243.963440,23.503651 244.882599,22.113642 245.950211,20.500992 
	C249.685547,20.125460 253.382187,20.082279 257.495819,20.442749 
	C256.488342,22.851023 255.310303,25.100208 253.601196,26.822344 
	C236.982239,43.568005 220.274384,60.225464 203.591858,76.908028 
	C190.891052,89.608826 178.190231,102.309593 165.489426,115.010376 
	C142.945648,137.554108 120.401909,160.097870 97.858162,182.641602 
	C81.206177,199.293579 64.554192,215.945526 47.902203,232.597488 
	C39.726631,240.773056 31.614643,249.014069 23.323109,257.070282 
	C21.613955,258.730896 19.235327,259.702515 17.165264,260.991730 
	C17.119942,257.295563 17.074615,253.599396 17.098801,249.446228 
z"/>
<path fill="#2D68B7" opacity="1.000000" stroke="none" 
	d="
M475.907227,521.541870 
	C474.038147,523.021179 471.906189,523.701172 470.494232,525.105225 
	C445.809509,549.651550 421.213043,574.286560 396.597321,598.902283 
	C364.357361,631.142273 332.112640,663.377380 299.893341,695.637939 
	C298.504425,697.028625 297.349213,698.652649 296.045105,700.501221 
	C291.311859,700.880310 286.618652,700.926208 281.463715,700.903687 
	C281.900269,699.157837 282.459167,697.141785 283.745911,695.851868 
	C330.744568,648.736633 377.810944,601.688843 424.867920,554.631836 
	C440.012451,539.487305 455.136505,524.322083 470.336823,509.233795 
	C471.678070,507.902405 473.517944,507.073395 475.480591,506.006531 
	C475.883148,511.027863 475.931274,516.053772 475.907227,521.541870 
z"/>
<path fill="#F3A650" opacity="1.000000" stroke="none" 
	d="
M272.995392,20.161831 
	C276.690460,20.120848 280.385559,20.079866 284.497375,20.434423 
	C284.121368,21.874691 283.438751,23.029549 282.520172,23.948503 
	C195.758713,110.743538 108.984306,197.525665 22.152435,284.250275 
	C20.862427,285.538666 18.843405,286.097198 17.164600,286.996338 
	C17.119814,283.632172 17.075031,280.268005 17.439243,276.408508 
	C20.153503,273.880981 22.541143,271.934082 24.750042,269.802032 
	C35.328995,259.591064 45.968925,249.439453 56.372654,239.051895 
	C64.670815,230.766617 72.547966,222.060394 80.820869,213.748917 
	C87.820602,206.716553 95.252655,200.114563 102.254150,193.083847 
	C111.904129,183.393585 121.206673,173.356613 130.884735,163.695221 
	C140.582016,154.014633 150.638016,144.694107 160.378281,135.055573 
	C165.330658,130.154922 169.780487,124.746605 174.730469,119.843346 
	C183.051926,111.600449 191.659485,103.646812 200.007904,95.430489 
	C203.771942,91.726013 207.057053,87.535553 210.813324,83.822395 
	C219.173325,75.558334 227.747391,67.511147 236.132492,59.272068 
	C244.231583,51.314022 252.335419,43.352631 260.179810,35.146679 
	C264.714508,30.402973 268.740479,25.172976 272.995392,20.161831 
z"/>
<path fill="#E1CD4F" opacity="1.000000" stroke="none" 
	d="
M17.102604,403.440460 
	C20.656509,400.281525 24.432497,397.856445 27.585329,394.790558 
	C36.846645,385.784607 45.905159,376.568085 54.958565,367.350952 
	C64.118073,358.025909 73.107201,348.533081 82.296448,339.237762 
	C94.355972,327.039001 106.474968,314.897491 118.686432,302.850983 
	C129.998535,291.691742 141.562302,280.786896 152.835083,269.588654 
	C162.103134,260.381897 171.008011,250.810013 180.253738,241.580170 
	C191.099167,230.753372 202.239731,220.221848 213.062988,209.373367 
	C221.780350,200.635696 230.100174,191.501877 238.800186,182.746323 
	C259.209991,162.206177 279.696411,141.741516 300.244568,121.339684 
	C309.914154,111.738968 319.853973,102.410919 329.568207,92.854477 
	C339.384979,83.197121 349.142609,73.477448 358.800812,63.661720 
	C369.345306,52.945221 379.763306,42.103905 390.199127,31.281019 
	C393.499084,27.858677 396.679077,24.320681 399.956543,20.500168 
	C402.373383,20.122431 404.747681,20.080137 407.562622,20.103447 
	C406.631470,21.983738 405.453003,23.991659 403.860138,25.585489 
	C305.903198,123.603973 207.912354,221.588577 109.924652,319.576324 
	C80.743660,348.757294 51.567867,377.943451 22.365808,407.103333 
	C20.973398,408.493713 19.348694,409.651459 17.500652,410.960358 
	C17.126064,408.629272 17.083002,406.255371 17.102604,403.440460 
z"/>
<path fill="#E26044" opacity="1.000000" stroke="none" 
	d="
M17.165867,199.991592 
	C17.117300,194.633255 17.068735,189.274918 17.426533,183.414520 
	C23.735481,177.591125 29.870268,172.502609 35.490059,166.897720 
	C45.717297,156.697632 55.512329,146.064926 65.710480,135.834824 
	C102.503990,98.926033 139.398041,62.117474 176.213135,25.230148 
	C177.685440,23.754950 178.741150,21.863968 179.990967,20.166718 
	C185.016785,20.122225 190.042603,20.077730 195.527756,20.453156 
	C194.924728,22.482103 194.100708,24.329119 192.765747,25.665928 
	C135.721710,82.789658 78.636459,139.872238 21.520311,196.923889 
	C20.282476,198.160324 18.626682,198.978363 17.165867,199.991592 
z"/>
<path fill="#29A2C8" opacity="1.000000" stroke="none" 
	d="
M475.901001,352.553497 
	C474.628448,353.432556 473.098236,353.535797 472.271332,354.351776 
	C466.469025,360.077484 460.833038,365.971283 455.096313,371.764221 
	C453.129974,373.749847 450.958221,375.532501 448.998199,377.523926 
	C434.059540,392.701813 419.209106,407.967102 404.204041,423.078949 
	C397.684784,429.644623 390.769714,435.815887 384.202759,442.335876 
	C367.929535,458.492554 351.753235,474.746918 335.538055,490.962097 
	C324.970642,501.529480 314.403290,512.096924 303.835876,522.664368 
	C290.090363,536.409851 276.344879,550.155334 262.599304,563.900879 
	C244.970856,581.529297 227.342392,599.157715 209.713943,616.786133 
	C193.493896,633.006226 177.273804,649.226318 161.053741,665.446350 
	C151.104218,675.395874 141.123993,685.315063 131.241821,695.330994 
	C129.911575,696.679199 129.075272,698.514832 128.004868,700.478760 
	C125.297028,700.878723 122.594597,700.924622 119.488052,700.569153 
	C120.114685,698.886475 121.035828,697.495544 122.191742,696.339355 
	C238.598953,579.898926 355.021851,463.474213 471.475372,347.080139 
	C472.715302,345.840881 474.371399,345.018005 475.833221,344.000793 
	C475.878448,346.703033 475.923645,349.405304 475.901001,352.553497 
z"/>
<path fill="#DD5341" opacity="1.000000" stroke="none" 
	d="
M179.527618,20.101242 
	C178.741150,21.863968 177.685440,23.754950 176.213135,25.230148 
	C139.398041,62.117474 102.503990,98.926033 65.710480,135.834824 
	C55.512329,146.064926 45.717297,156.697632 35.490059,166.897720 
	C29.870268,172.502609 23.735481,177.591125 17.499910,182.951462 
	C17.118696,177.300659 17.070469,171.610855 17.427643,165.417648 
	C19.230753,163.767426 20.731710,162.724686 22.009436,161.456940 
	C30.370529,153.161148 38.683323,144.816666 47.011898,136.488113 
	C69.480858,114.019142 91.949837,91.550194 114.418800,69.081238 
	C129.144165,54.355877 143.887039,39.647934 158.565613,24.876104 
	C159.918396,23.514732 160.861359,21.746124 161.994629,20.166613 
	C167.684509,20.122999 173.374405,20.079384 179.527618,20.101242 
z"/>
<path fill="#98B133" opacity="1.000000" stroke="none" 
	d="
M475.900116,56.581154 
	C474.016052,58.374760 472.007141,59.549320 470.415009,61.140827 
	C321.168671,210.327576 171.955292,359.547272 22.722147,508.747192 
	C21.212408,510.256622 19.469257,511.532593 17.502563,512.960327 
	C17.125048,510.959229 17.080036,508.915314 17.100908,506.437561 
	C20.071968,503.874969 23.309549,502.079926 25.832354,499.567230 
	C62.395496,463.150238 98.862793,426.636963 135.353043,390.146790 
	C149.569305,375.930511 163.785599,361.714325 178.001877,347.498047 
	C195.372681,330.127258 212.743454,312.756378 230.114258,295.385529 
	C250.695953,274.803833 271.277679,254.222137 291.859406,233.640442 
	C303.720032,221.779800 315.580688,209.919159 327.441284,198.058502 
	C363.911163,161.588531 400.381073,125.118561 436.850952,88.648613 
	C448.224915,77.274635 459.587097,65.888779 470.989471,54.543331 
	C472.265808,53.273384 473.770264,52.232712 475.501862,51.045860 
	C475.879822,52.722939 475.924835,54.439850 475.900116,56.581154 
z"/>
<path fill="#3C8D33" opacity="1.000000" stroke="none" 
	d="
M17.093283,656.431458 
	C18.363062,655.578125 19.704012,655.370972 20.718590,654.682678 
	C21.937420,653.855835 22.879335,652.620239 23.939547,651.559998 
	C172.842285,502.657471 321.743927,353.753784 470.662140,204.866669 
	C472.051300,203.477783 473.661224,202.309738 475.500732,201.018646 
	C475.881989,203.043747 475.930573,205.088821 475.565308,207.608673 
	C473.027252,209.629425 470.652313,210.924240 468.815369,212.757980 
	C416.855774,264.626740 364.950409,316.549927 313.036163,368.464142 
	C216.227722,465.272583 119.422417,562.084167 22.582916,658.861572 
	C20.990086,660.453308 18.981104,661.628601 17.166351,662.998291 
	C17.117540,660.953674 17.068714,658.909119 17.093283,656.431458 
z"/>
<path fill="#3A8D38" opacity="1.000000" stroke="none" 
	d="
M17.093807,663.410889 
	C18.981104,661.628601 20.990086,660.453308 22.582916,658.861572 
	C119.422417,562.084167 216.227722,465.272583 313.036163,368.464142 
	C364.950409,316.549927 416.855774,264.626740 468.815369,212.757980 
	C470.652313,210.924240 473.027252,209.629425 475.492371,208.041321 
	C475.881317,209.391098 475.929382,210.783035 475.905487,212.587646 
	C474.371796,214.017365 472.752350,214.867859 471.474030,216.078522 
	C463.300354,223.819412 455.081421,231.518967 447.113831,239.469055 
	C439.880493,246.686462 433.076172,254.333557 425.851044,261.559540 
	C415.784332,271.627441 405.430511,281.407928 395.335968,291.448517 
	C388.236755,298.509796 381.473633,305.909271 374.365845,312.961578 
	C363.197937,324.042328 351.817993,334.909149 340.627319,345.967255 
	C336.171204,350.370575 332.035034,355.095917 327.649231,359.572784 
	C324.751068,362.531067 321.633209,365.272705 318.674805,368.173676 
	C313.244324,373.498871 307.852325,378.863373 302.456787,384.224091 
	C297.675079,388.974945 292.854889,393.688965 288.156342,398.520996 
	C284.572510,402.206635 281.222565,406.119568 277.642303,409.808807 
	C272.920593,414.674194 268.076904,419.421204 263.282837,424.216278 
	C253.248123,434.253113 243.211609,444.288177 233.175842,454.323975 
	C222.551071,464.948700 211.989746,475.637878 201.282074,486.178436 
	C192.192200,495.126373 182.831955,503.800629 173.784378,512.790222 
	C167.569748,518.965088 161.804794,525.591370 155.619598,531.797363 
	C149.555740,537.881592 143.165268,543.639038 137.022003,549.646057 
	C134.897736,551.723267 133.209595,554.243103 131.110733,556.350098 
	C113.404129,574.125122 95.648521,591.851318 77.907654,609.592224 
	C59.624863,627.875061 41.360558,646.176453 23.024002,664.405212 
	C21.563387,665.857239 19.603104,666.806580 17.520523,667.994751 
	C17.117764,666.607788 17.069521,665.215637 17.093807,663.410889 
z"/>
<path fill="#2C9671" opacity="1.000000" stroke="none" 
	d="
M38.421211,700.905945 
	C39.007793,699.379456 39.824299,697.731201 41.056484,696.498596 
	C184.121124,553.375610 327.214447,410.281342 470.343933,267.223267 
	C471.677155,265.890717 473.516083,265.064178 475.475616,263.998657 
	C475.879822,265.388123 475.927307,266.780334 475.571045,268.622864 
	C473.888397,270.105286 472.501648,271.029449 471.346039,272.184784 
	C329.900879,413.597534 188.471085,555.025635 47.071339,696.483826 
	C45.834358,697.721313 45.013268,699.374512 43.997986,700.833618 
	C42.280388,700.881836 40.562801,700.930054 38.421211,700.905945 
z"/>
<path fill="#2C9777" opacity="1.000000" stroke="none" 
	d="
M44.422180,700.904785 
	C45.013268,699.374512 45.834358,697.721313 47.071339,696.483826 
	C188.471085,555.025635 329.900879,413.597534 471.346039,272.184784 
	C472.501648,271.029449 473.888397,270.105286 475.500427,269.035645 
	C475.879761,270.714935 475.925903,272.431793 475.568787,274.612152 
	C473.886383,276.107727 472.499115,277.031647 471.343353,278.187134 
	C331.899597,417.598541 192.471283,557.025391 53.073009,696.482239 
	C51.835438,697.720337 51.013248,699.373596 49.997116,700.833069 
	C48.280197,700.880676 46.563282,700.928284 44.422180,700.904785 
z"/>
<path fill="#A6B838" opacity="1.000000" stroke="none" 
	d="
M475.223267,41.582420 
	C472.653503,43.565666 469.825562,44.807804 467.793549,46.844177 
	C459.725189,54.929718 452.034729,63.392651 443.957458,71.468933 
	C435.810669,79.614723 427.249054,87.345398 419.095428,95.484596 
	C411.278229,103.288010 403.841522,111.471611 396.065460,119.317574 
	C390.840698,124.589302 385.274933,129.521317 379.938934,134.685089 
	C375.545380,138.936829 371.208466,143.250580 366.947266,147.634827 
	C358.994019,155.817825 351.251434,164.209946 343.169281,172.262146 
	C332.679321,182.713211 321.824219,192.798019 311.348206,203.262680 
	C301.734009,212.866501 292.491821,222.841858 282.931793,232.501190 
	C278.261536,237.219940 273.044525,241.400650 268.413483,246.154663 
	C249.440964,265.631134 230.663696,285.297974 211.670624,304.754242 
	C205.652740,310.918915 199.063797,316.522888 192.962723,322.610504 
	C187.436401,328.124634 182.399490,334.131866 176.835159,339.604858 
	C143.611282,372.283203 110.236839,404.808533 77.037285,437.511444 
	C58.919655,455.358032 41.065762,473.472198 23.028734,491.401093 
	C21.566711,492.854401 19.606850,493.806854 17.524628,494.998932 
	C17.125610,493.614075 17.080273,492.222260 17.455177,490.410706 
	C19.840260,488.570618 22.043062,487.388397 23.736105,485.696167 
	C172.645706,336.859711 321.513977,187.981888 470.416809,39.138622 
	C472.008911,37.547173 474.018707,36.373566 475.833496,35.004898 
	C475.665955,37.072029 475.498413,39.139164 475.223267,41.582420 
z"/>
<path fill="#DA4A40" opacity="1.000000" stroke="none" 
	d="
M161.531006,20.098749 
	C160.861359,21.746124 159.918396,23.514732 158.565613,24.876104 
	C143.887039,39.647934 129.144165,54.355877 114.418800,69.081238 
	C91.949837,91.550194 69.480858,114.019142 47.011898,136.488113 
	C38.683323,144.816666 30.370529,153.161148 22.009436,161.456940 
	C20.731710,162.724686 19.230753,163.767426 17.500031,164.954376 
	C17.117722,158.969620 17.068424,152.944702 17.092609,146.456024 
	C21.393560,142.427139 25.794916,139.045990 29.807631,135.253632 
	C35.790352,129.599472 41.518013,123.674126 47.315647,117.825958 
	C49.977711,115.140686 52.475170,112.290138 55.174419,109.644241 
	C62.236355,102.721886 69.455269,95.957809 76.442223,88.961472 
	C81.211067,84.186226 85.581337,79.014000 90.328453,74.215782 
	C102.569069,61.843399 114.957130,49.616970 127.209633,37.256245 
	C132.541061,31.877720 137.684586,26.312914 142.952820,20.499277 
	C149.017258,20.120859 155.042343,20.075874 161.531006,20.098749 
z"/>
<path fill="#2A9C8F" opacity="1.000000" stroke="none" 
	d="
M64.431168,700.903809 
	C65.015404,699.372253 65.838753,697.716919 67.077904,696.477295 
	C201.806488,561.690125 336.565277,426.933136 471.339600,292.191711 
	C472.495880,291.035736 473.886230,290.113922 475.500183,289.040405 
	C475.878540,291.042267 475.923981,293.086487 475.900818,295.564209 
	C472.780426,298.330627 469.463806,300.391632 466.731567,303.052643 
	C460.934235,308.698822 455.529663,314.746155 449.797791,320.462280 
	C444.433838,325.811493 438.776764,330.866028 433.387695,336.190948 
	C422.649414,346.801483 411.939240,357.442230 401.342316,368.193542 
	C389.713623,379.991699 378.327759,392.030182 366.641663,403.770386 
	C358.368073,412.082245 349.630829,419.932465 341.351837,428.239166 
	C329.182251,440.449554 317.309143,452.955109 305.165222,465.191498 
	C299.145111,471.257507 292.696228,476.896301 286.626831,482.915436 
	C271.329224,498.086273 256.136932,513.363281 240.902466,528.597717 
	C227.236572,542.263550 213.570679,555.929382 199.904800,569.595215 
	C188.543503,580.956543 177.132065,592.268372 165.835434,603.693665 
	C155.035370,614.616882 144.467468,625.771118 133.593979,636.619812 
	C118.930214,651.250061 104.060219,665.673401 89.302780,680.209961 
	C84.116371,685.318726 78.949127,690.449402 73.890877,695.683838 
	C72.687538,696.929138 71.957268,698.631592 71.003357,700.478088 
	C68.953018,700.879700 66.908722,700.926941 64.431168,700.903809 
z"/>
<path fill="#2B997F" opacity="1.000000" stroke="none" 
	d="
M50.421692,700.904480 
	C51.013248,699.373596 51.835438,697.720337 53.073009,696.482239 
	C192.471283,557.025391 331.899597,417.598541 471.343353,278.187134 
	C472.499115,277.031647 473.886383,276.107727 475.499512,275.036499 
	C475.879913,276.714539 475.926361,278.431824 475.904327,280.574158 
	C474.376038,282.014465 472.721863,282.835236 471.484009,284.072540 
	C334.026245,421.471466 196.598679,558.900513 59.186539,696.345093 
	C58.031265,697.500610 57.108166,698.888306 56.038017,700.501709 
	C54.281670,700.882507 52.563969,700.929199 50.421692,700.904480 
z"/>
<path fill="#F3B252" opacity="1.000000" stroke="none" 
	d="
M301.548981,20.101973 
	C300.980774,21.626177 300.161194,23.282438 298.923553,24.520903 
	C206.526901,116.978333 114.098579,209.404114 21.654476,301.814117 
	C20.499889,302.968262 19.109407,303.886414 17.497072,304.955017 
	C17.121977,302.292755 17.078833,299.590240 17.432350,296.401215 
	C19.110123,294.885681 20.501347,293.966858 21.656654,292.811981 
	C111.099037,203.403778 200.525604,113.979767 289.920410,24.523983 
	C291.158936,23.284599 291.979645,21.627708 292.995392,20.165689 
	C295.697754,20.123468 298.400116,20.081247 301.548981,20.101973 
z"/>
<path fill="#D7CB4B" opacity="1.000000" stroke="none" 
	d="
M425.576233,20.100288 
	C424.866913,21.744097 423.920898,23.509834 422.568787,24.872744 
	C410.136139,37.404682 397.602875,49.836761 385.157349,62.356010 
	C363.611877,84.029160 342.147400,105.782959 320.569275,127.423470 
	C310.582001,137.439621 300.335571,147.197128 290.329315,157.194672 
	C233.929352,213.545395 177.566681,269.933472 121.191299,326.308807 
	C88.254089,359.246002 55.321461,392.187775 22.363747,425.104401 
	C20.971806,426.494598 19.346603,427.651276 17.498169,428.958923 
	C17.123714,427.284119 17.081160,425.567169 17.102097,423.424744 
	C18.627773,421.982178 20.284538,421.159698 21.524527,419.920258 
	C153.311386,288.192352 285.067871,156.434036 416.808685,24.660053 
	C417.964966,23.503494 418.885529,22.111252 419.957642,20.497086 
	C421.716461,20.121880 423.433807,20.078625 425.576233,20.100288 
z"/>
<path fill="#E66B46" opacity="1.000000" stroke="none" 
	d="
M17.094652,200.450653 
	C18.626682,198.978363 20.282476,198.160324 21.520311,196.923889 
	C78.636459,139.872238 135.721710,82.789658 192.765747,25.665928 
	C194.100708,24.329119 194.924728,22.482103 195.990112,20.518862 
	C200.352905,20.121300 204.712708,20.077950 209.492935,20.433558 
	C208.886276,22.110947 207.968826,23.498985 206.816345,24.652117 
	C145.072372,86.431595 83.312508,148.195160 21.518946,209.925018 
	C20.281561,211.161133 18.626865,211.979477 17.166862,212.992722 
	C17.119055,208.965057 17.071247,204.937378 17.094652,200.450653 
z"/>
<path fill="#87A92E" opacity="1.000000" stroke="none" 
	d="
M475.907104,82.571381 
	C471.825348,86.402733 467.594360,89.575714 463.842285,93.239182 
	C450.398773,106.365395 437.035797,119.576569 423.794250,132.906479 
	C404.674072,152.154236 385.868164,171.717194 366.590302,190.804398 
	C347.922699,209.287399 328.647675,227.156570 309.962738,245.622482 
	C282.037567,273.220276 254.395569,301.104645 226.633118,328.867065 
	C218.188766,337.311401 209.808533,345.821167 201.282928,354.182648 
	C191.822540,363.460968 182.152405,372.525726 172.714005,381.825989 
	C161.256271,393.116058 149.945297,404.555023 138.570801,415.929504 
	C117.672150,436.828186 96.773521,457.726868 75.874847,478.625488 
	C65.899246,488.601105 55.923679,498.576752 45.948067,508.552338 
	C37.857086,516.643311 29.780794,524.749146 21.658548,532.808655 
	C20.498323,533.959900 19.115492,534.886780 17.502470,535.960510 
	C17.122438,534.934021 17.075623,533.864502 17.096653,532.398193 
	C18.979084,530.631348 20.987978,529.455811 22.580627,527.863770 
	C171.829269,378.674561 321.044983,229.452408 470.280640,80.250175 
	C471.790009,78.741173 473.534882,77.467751 475.502960,76.043808 
	C475.883270,78.048187 475.930420,80.093102 475.907104,82.571381 
z"/>
<path fill="#ABBA3A" opacity="1.000000" stroke="none" 
	d="
M475.901367,34.608273 
	C474.018707,36.373566 472.008911,37.547173 470.416809,39.138622 
	C321.513977,187.981888 172.645706,336.859711 23.736105,485.696167 
	C22.043062,487.388397 19.840260,488.570618 17.521614,489.997314 
	C17.124184,487.959045 17.080557,485.914337 17.103395,483.435791 
	C18.631145,481.983582 20.267977,481.144745 21.523924,479.916443 
	C27.598949,473.974976 33.526798,467.883179 39.589272,461.928650 
	C55.382439,446.416656 70.628876,430.277130 87.235825,415.688385 
	C99.207619,405.171539 108.843582,392.681946 120.060875,381.620667 
	C130.768295,371.062164 142.403854,361.451294 153.287079,351.063141 
	C168.212616,336.816589 182.835083,322.251801 197.544662,307.779907 
	C205.896454,299.563110 214.225662,291.321564 222.454514,282.982086 
	C238.319046,266.904297 254.024887,250.669266 269.955933,234.658051 
	C278.584320,225.986267 287.641052,217.742050 296.328827,209.127762 
	C313.407074,192.193954 330.362549,175.136353 347.368896,158.130035 
	C355.349579,150.149368 363.330505,142.168884 371.311188,134.188217 
	C388.081970,117.417473 404.906982,100.700485 421.602905,83.855537 
	C431.483276,73.886978 441.006622,63.561714 450.976593,53.685642 
	C458.813232,45.922779 467.088043,38.602272 475.502380,31.044655 
	C475.880768,32.073246 475.925018,33.142445 475.901367,34.608273 
z"/>
<path fill="#7EA52B" opacity="1.000000" stroke="none" 
	d="
M17.098495,543.414856 
	C18.846764,542.099426 20.869427,541.536316 22.149675,540.239990 
	C30.898640,531.381348 39.344444,522.220825 48.168587,513.439575 
	C62.379158,499.298035 76.851921,485.420410 91.126953,471.343079 
	C102.009453,460.611298 112.757141,449.742828 123.564819,438.935181 
	C161.316711,401.183136 199.068649,363.431152 236.820587,325.679169 
	C253.381805,309.117950 269.943054,292.556763 286.504272,275.995544 
	C305.862335,256.637482 325.278107,237.336639 344.556763,217.899796 
	C356.094177,206.267685 367.261749,194.266800 378.870300,182.707581 
	C399.718933,161.947647 420.798004,141.419403 441.733032,120.745934 
	C451.537140,111.064278 461.216309,101.256157 470.989807,91.543312 
	C472.266968,90.274094 473.769714,89.231865 475.501038,88.043610 
	C475.881622,89.720474 475.929138,91.438225 475.905457,93.580383 
	C473.763397,95.296021 471.352753,96.246994 469.670410,97.927216 
	C381.746185,185.740982 293.895386,273.628235 205.993088,361.464020 
	C198.735062,368.716553 191.046173,375.537903 183.787460,382.789825 
	C176.888062,389.682831 170.382553,396.968628 163.538528,403.918884 
	C153.198181,414.419739 142.712769,424.777710 132.291824,435.199188 
	C111.167984,456.324127 90.097565,477.502869 68.900742,498.554291 
	C58.906616,508.479858 48.675480,518.166931 38.543961,527.953979 
	C31.647707,534.615784 24.738003,541.263672 17.501492,547.960571 
	C17.122232,546.611450 17.075802,545.219727 17.098495,543.414856 
z"/>
<path fill="#2F925B" opacity="1.000000" stroke="none" 
	d="
M21.106358,699.417969 
	C22.140862,697.740479 23.241169,696.282654 24.520163,695.003479 
	C173.336502,546.162048 322.165222,397.333008 471.009583,248.519577 
	C472.281860,247.247559 473.774689,246.196060 475.498779,245.019836 
	C475.880768,246.389816 475.928528,247.781570 475.571594,249.628021 
	C473.885223,251.114426 472.494202,252.036758 471.337372,253.193344 
	C323.564087,400.934021 175.806381,548.690247 28.078621,696.476501 
	C26.839211,697.716431 26.015928,699.372314 24.998350,700.833984 
	C23.750761,700.463013 22.503176,700.092041 21.106358,699.417969 
z"/>
<path fill="#F39A4E" opacity="1.000000" stroke="none" 
	d="
M17.097797,261.438293 
	C19.235327,259.702515 21.613955,258.730896 23.323109,257.070282 
	C31.614643,249.014069 39.726631,240.773056 47.902203,232.597488 
	C64.554192,215.945526 81.206177,199.293579 97.858162,182.641602 
	C120.401909,160.097870 142.945648,137.554108 165.489426,115.010376 
	C178.190231,102.309593 190.891052,89.608826 203.591858,76.908028 
	C220.274384,60.225464 236.982239,43.568005 253.601196,26.822344 
	C255.310303,25.100208 256.488342,22.851023 257.952179,20.506279 
	C260.695709,20.122982 263.399902,20.079807 266.546143,20.454250 
	C265.688721,22.717970 264.627411,24.801983 263.055420,26.375910 
	C197.286804,92.224495 131.472519,158.027451 65.663902,223.836075 
	C51.294525,238.205444 36.957333,252.607391 22.504932,266.892792 
	C21.087303,268.294037 18.961699,268.979034 17.164711,269.996521 
	C17.119921,267.292633 17.075125,264.588745 17.097797,261.438293 
z"/>
<path fill="#29A2C2" opacity="1.000000" stroke="none" 
	d="
M475.901062,343.575867 
	C474.371399,345.018005 472.715302,345.840881 471.475372,347.080139 
	C355.021851,463.474213 238.598953,579.898926 122.191742,696.339355 
	C121.035828,697.495544 120.114685,698.886475 119.042450,700.500610 
	C117.283073,700.879028 115.565193,700.924622 113.422516,700.901245 
	C116.865265,696.345825 120.518524,691.651001 124.640068,687.411438 
	C137.586472,674.094299 150.605591,660.844177 163.787170,647.760132 
	C184.580185,627.120972 205.627457,606.737549 226.382599,586.060669 
	C247.198898,565.322937 267.712891,544.281982 288.497467,523.512085 
	C315.123535,496.904907 341.945709,470.494049 368.573273,443.888336 
	C388.671997,423.806091 408.547638,403.500702 428.619080,383.390961 
	C441.036346,370.949982 453.616028,358.670685 466.165161,346.362000 
	C469.070618,343.512177 472.148956,340.838593 475.489868,338.040802 
	C475.877625,339.715454 475.923279,341.433228 475.901062,343.575867 
z"/>
<path fill="#F3AC51" opacity="1.000000" stroke="none" 
	d="
M292.554810,20.102465 
	C291.979645,21.627708 291.158936,23.284599 289.920410,24.523983 
	C200.525604,113.979767 111.099037,203.403778 21.656654,292.811981 
	C20.501347,293.966858 19.110123,294.885681 17.496952,295.954956 
	C17.121223,293.293121 17.077559,290.591095 17.099249,287.442688 
	C18.843405,286.097198 20.862427,285.538666 22.152435,284.250275 
	C108.984306,197.525665 195.758713,110.743538 282.520172,23.948503 
	C283.438751,23.029549 284.121368,21.874691 284.953979,20.497856 
	C287.367279,20.123579 289.740753,20.081409 292.554810,20.102465 
z"/>
<path fill="#EB7B49" opacity="1.000000" stroke="none" 
	d="
M229.798019,20.550591 
	C226.347092,25.059172 222.802170,29.382166 218.931168,33.390247 
	C212.136429,40.425591 205.202835,47.330235 198.212769,54.172504 
	C192.156693,60.100491 185.797562,65.723106 179.831024,71.737305 
	C171.046082,80.592453 162.568344,89.751801 153.818069,98.642105 
	C143.333740,109.294212 132.739685,119.839310 122.124199,130.361160 
	C88.883774,163.308365 55.619404,196.231445 22.316978,229.115952 
	C21.088055,230.329453 19.364468,231.042038 17.517334,231.991592 
	C17.118462,229.291962 17.073652,226.588806 17.430689,223.399796 
	C25.074257,216.099197 32.494652,209.463181 39.524326,202.436310 
	C60.898289,181.070831 82.016220,159.448853 103.429855,138.123550 
	C129.939667,111.723122 156.666565,85.540802 183.257782,59.221924 
	C194.610794,47.985184 205.882080,36.665359 217.118103,25.311621 
	C218.337997,24.078947 219.075607,22.368969 220.036926,20.880383 
	C223.210342,20.661322 226.383774,20.442259 229.798019,20.550591 
z"/>
<path fill="#E87347" opacity="1.000000" stroke="none" 
	d="
M219.787689,20.544342 
	C219.075607,22.368969 218.337997,24.078947 217.118103,25.311621 
	C205.882080,36.665359 194.610794,47.985184 183.257782,59.221924 
	C156.666565,85.540802 129.939667,111.723122 103.429855,138.123550 
	C82.016220,159.448853 60.898289,181.070831 39.524326,202.436310 
	C32.494652,209.463181 25.074257,216.099197 17.499893,222.954056 
	C17.120558,219.960419 17.073862,216.926666 17.097017,213.442825 
	C18.626865,211.979477 20.281561,211.161133 21.518946,209.925018 
	C83.312508,148.195160 145.072372,86.431595 206.816345,24.652117 
	C207.968826,23.498985 208.886276,22.110947 209.952972,20.499741 
	C213.174515,20.180748 216.356491,20.194525 219.787689,20.544342 
z"/>
<path fill="#65992A" opacity="1.000000" stroke="none" 
	d="
M17.095421,578.414795 
	C18.843939,577.100525 20.862389,576.538269 22.151152,575.247498 
	C45.912663,551.447510 69.561539,527.535095 93.295509,503.707611 
	C100.308266,496.667206 107.569695,489.875031 114.611931,482.863373 
	C131.658554,465.890808 148.643204,448.855988 165.652878,431.846313 
	C177.510818,419.988312 189.368790,408.130371 201.226761,396.272400 
	C212.971741,384.527344 224.771454,372.836334 236.446243,361.021881 
	C247.989182,349.340820 259.284424,337.413361 270.908112,325.814209 
	C286.084900,310.669403 301.503265,295.766968 316.767761,280.709686 
	C325.154358,272.436951 333.438690,264.060547 341.768799,255.730530 
	C361.619598,235.879898 381.523895,216.082352 401.304138,196.161636 
	C417.532776,179.817810 433.506226,163.219696 449.805145,146.946976 
	C458.016479,138.748871 466.699463,131.023178 475.502502,123.043076 
	C475.882812,124.394440 475.929749,125.786598 475.904297,127.591339 
	C474.152557,128.904968 472.144989,129.475708 470.849396,130.763000 
	C464.499847,137.071869 458.437897,143.669952 452.096619,149.987473 
	C414.849335,187.095215 377.544952,224.145706 340.276672,261.232452 
	C328.614105,272.838165 317.003784,284.496399 305.369598,296.130646 
	C266.284729,335.215637 227.199921,374.300690 188.115067,413.385681 
	C177.356644,424.144196 166.570068,434.874725 155.845734,445.667114 
	C134.433823,467.214813 113.100479,488.840759 91.646217,510.346100 
	C80.237709,521.781799 68.607742,532.996277 57.144039,544.377380 
	C44.809341,556.623230 32.558174,568.953186 20.245382,581.221191 
	C19.559431,581.904663 18.643734,582.357605 17.501999,582.960327 
	C17.121250,581.611145 17.073465,580.219482 17.095421,578.414795 
z"/>
<path fill="#2E9360" opacity="1.000000" stroke="none" 
	d="
M25.410892,700.905334 
	C26.015928,699.372314 26.839211,697.716431 28.078621,696.476501 
	C175.806381,548.690247 323.564087,400.934021 471.337372,253.193344 
	C472.494202,252.036758 473.885223,251.114426 475.499969,250.040436 
	C475.880066,251.389587 475.927124,252.780975 475.904449,254.585266 
	C473.801819,256.254150 471.430176,257.171051 469.784485,258.814758 
	C378.188873,350.300690 286.653809,441.847229 195.112854,533.387939 
	C141.380997,587.119690 87.642525,640.844788 33.952114,694.617920 
	C32.378178,696.194275 31.312637,698.278320 30.004084,700.479980 
	C28.606562,700.881836 27.214998,700.929260 25.410892,700.905334 
z"/>
<path fill="#F39F4F" opacity="1.000000" stroke="none" 
	d="
M17.098986,270.421326 
	C18.961699,268.979034 21.087303,268.294037 22.504932,266.892792 
	C36.957333,252.607391 51.294525,238.205444 65.663902,223.836075 
	C131.472519,158.027451 197.286804,92.224495 263.055420,26.375910 
	C264.627411,24.801983 265.688721,22.717970 266.992371,20.518318 
	C268.712708,20.121859 270.428894,20.078949 272.570221,20.098936 
	C268.740479,25.172976 264.714508,30.402973 260.179810,35.146679 
	C252.335419,43.352631 244.231583,51.314022 236.132492,59.272068 
	C227.747391,67.511147 219.173325,75.558334 210.813324,83.822395 
	C207.057053,87.535553 203.771942,91.726013 200.007904,95.430489 
	C191.659485,103.646812 183.051926,111.600449 174.730469,119.843346 
	C169.780487,124.746605 165.330658,130.154922 160.378281,135.055573 
	C150.638016,144.694107 140.582016,154.014633 130.884735,163.695221 
	C121.206673,173.356613 111.904129,183.393585 102.254150,193.083847 
	C95.252655,200.114563 87.820602,206.716553 80.820869,213.748917 
	C72.547966,222.060394 64.670815,230.766617 56.372654,239.051895 
	C45.968925,249.439453 35.328995,259.591064 24.750042,269.802032 
	C22.541143,271.934082 20.153503,273.880981 17.504757,275.954163 
	C17.118607,274.278778 17.075933,272.562439 17.098986,270.421326 
z"/>
</svg>